<svg xmlns="http://www.w3.org/2000/svg" viewBox="0 0 200 200" role="img" aria-label="Dotted radial mark">
  <g fill="#102006">
    <circle cx="100" cy="4" r="5"/>
    <circle cx="100" cy="28" r="5"/>
    <circle cx="100" cy="52" r="5"/>
    <circle cx="100" cy="76" r="5"/>
    <circle cx="100" cy="100" r="5"/>
    <circle cx="100" cy="124" r="5"/>
    <circle cx="100" cy="148" r="5"/>
    <circle cx="100" cy="172" r="5"/>
    <circle cx="100" cy="196" r="5"/>
    <circle cx="4" cy="100" r="5"/>
    <circle cx="28" cy="100" r="5"/>
    <circle cx="52" cy="100" r="5"/>
    <circle cx="76" cy="100" r="5"/>
    <circle cx="124" cy="100" r="5"/>
    <circle cx="148" cy="100" r="5"/>
    <circle cx="172" cy="100" r="5"/>
    <circle cx="196" cy="100" r="5"/>
    <circle cx="32" cy="32" r="5"/>
    <circle cx="49" cy="49" r="5"/>
    <circle cx="66" cy="66" r="5"/>
    <circle cx="83" cy="83" r="5"/>
    <circle cx="117" cy="117" r="5"/>
    <circle cx="134" cy="134" r="5"/>
    <circle cx="151" cy="151" r="5"/>
    <circle cx="168" cy="168" r="5"/>
    <circle cx="168" cy="32" r="5"/>
    <circle cx="151" cy="49" r="5"/>
    <circle cx="134" cy="66" r="5"/>
    <circle cx="117" cy="83" r="5"/>
    <circle cx="83" cy="117" r="5"/>
    <circle cx="66" cy="134" r="5"/>
    <circle cx="49" cy="151" r="5"/>
    <circle cx="32" cy="168" r="5"/>
  </g>
</svg>
