<svg xmlns="http://www.w3.org/2000/svg" viewBox="0 0 300 300" role="img" aria-labelledby="title desc">
  <title id="title">Warning Globe Badge</title>
  <desc id="desc">A wireframe globe badge with a black banner and outlined warning text.</desc>
  <g fill="none" stroke="#fff" stroke-width="6" stroke-linecap="round" stroke-linejoin="round">
    <circle cx="150" cy="150" r="116"/>
    <ellipse cx="150" cy="150" rx="48" ry="116"/>
    <ellipse cx="150" cy="150" rx="84" ry="116"/>
    <path d="M34 150h232M52 96h196M52 204h196M88 50c30 16 94 16 124 0M88 250c30-16 94-16 124 0M150 34v232"/>
  </g>
  <rect x="47" y="111" width="206" height="78" fill="#000" stroke="#fff" stroke-width="7"/>
  <g fill="none" stroke="#fff" stroke-width="4" stroke-linejoin="round">
    <path d="M65 171V130h12l7 23 8-23h12v41H93v-22l-7 22h-6l-7-22v22z"/>
    <path d="M111 171V130h28v9h-17v7h15v9h-15v7h18v9z"/>
    <path d="M146 171V130h22c11 0 17 6 17 16 0 6-3 11-8 13l10 12h-14l-8-11h-7v11zM158 151h9c4 0 6-2 6-5 0-4-2-6-6-6h-9z"/>
    <path d="M192 171V130h13l17 22v-22h12v41h-12l-18-23v23z"/>
  </g>
</svg>
