<svg xmlns="http://www.w3.org/2000/svg" viewBox="0 0 300 300" role="img" aria-labelledby="title desc">
  <title id="title">Wireframe Globe With Europe Silhouette</title>
  <desc id="desc">White vector globe with latitude and longitude lines and abstract Europe and Africa land shapes.</desc>
  <g fill="none" stroke="#fff" stroke-width="7" stroke-linecap="round" stroke-linejoin="round">
    <circle cx="150" cy="150" r="118"/>
    <ellipse cx="150" cy="150" rx="48" ry="118"/>
    <ellipse cx="150" cy="150" rx="86" ry="118"/>
    <path d="M32 150h236M48 96h204M48 204h204M86 48c30 18 98 18 128 0M86 252c30-18 98-18 128 0M150 32v236"/>
  </g>
  <g fill="#fff">
    <path d="M72 74c22-25 50-41 86-42l-8 21 18 15 37-8c38 20 63 57 63 100 0 11-2 22-5 32l-45 4-26-24-37 7-15-22 16-23-25-20-33 2-27-18z"/>
    <path d="M128 148l30 12 21 45-18 49c-50-5-91-41-104-88l31-14 22 10zM54 111l30 17-8 24-31 11c-2-8-3-17-3-26 0-9 4-18 12-26z"/>
  </g>
</svg>
