<svg xmlns="http://www.w3.org/2000/svg" viewBox="0 0 300 300" role="img" aria-labelledby="title desc">
  <title id="title">Wireframe Globe With Asia Silhouette</title>
  <desc id="desc">White vector globe with latitude and longitude lines and an abstract landmass silhouette.</desc>
  <g fill="none" stroke="#fff" stroke-width="7" stroke-linecap="round" stroke-linejoin="round">
    <circle cx="150" cy="150" r="118"/>
    <ellipse cx="150" cy="150" rx="52" ry="118"/>
    <ellipse cx="150" cy="150" rx="92" ry="118"/>
    <path d="M32 150h236M49 98h202M49 202h202M85 48c28 17 102 17 130 0M85 252c28-17 102-17 130 0M150 32v236"/>
  </g>
  <g fill="#fff">
    <path d="M56 83c20-22 44-30 78-33 14 6 26 8 44 4l14 15c-15 2-34 0-53-5l-15 12 25 14 48-2 38 30-10 25-53-7-23 20 14 36 33 14 34-12 19 16c-21 34-56 55-99 55-65 0-118-53-118-118 0-24 7-46 24-64z"/>
    <path d="M84 85l14 4-4 15 19 9-7 18-25-13-18 12-3-24zM122 160l21 10-13 20 8 29-22 15-21-34zM220 168l35 8-9 33-30-13z"/>
  </g>
</svg>
