<svg width="155" height="26" viewBox="0 0 155 26" fill="none" xmlns="http://www.w3.org/2000/svg">
<g clip-path="url(#clip0_4204_12337)">
<path d="M73.7164 16.4944L59.1641 25.1885H88.2688L73.7164 16.4944Z" fill="#F8F4F1"/>
<path d="M80.8014 12.2613L73.7181 -6.10352e-05L66.6348 12.2613L73.7181 16.4945L80.8014 12.2613Z" fill="#F8F4F1"/>
<path d="M66.6331 12.2613L59.1641 25.1885L73.7164 16.4945L66.6331 12.2613Z" fill="#F8F4F1"/>
<path d="M16.1794 12.3315C18.2483 12.5943 20.5802 14.6232 20.5802 18.1976C20.5802 22.2976 18.0589 25.1886 12.4554 25.1886H0V0H12.4168C16.9684 0 19.8648 2.78238 19.8648 6.99098C19.8648 10.1869 17.6837 11.9145 16.1759 12.1808V12.3315H16.1794ZM5.11962 10.5268H11.5156C13.546 10.5268 14.903 9.25123 14.903 7.29585C14.903 5.52971 13.5109 4.36279 11.8558 4.36279H5.11612V10.5268H5.11962ZM11.8908 20.8293C14.1877 20.8293 15.3519 19.5888 15.3519 17.7105C15.3519 15.8322 13.9983 14.5917 12.0802 14.5917H5.11612V20.8328H11.8873L11.8908 20.8293ZM46.4834 25.1921L38.1692 15.9443H35.4972V25.1921H30.3811V0H42.4578C47.8755 0 51.4873 3.19588 51.4873 7.96867C51.4873 12.1808 48.6645 15.1874 44.2637 15.8252L52.7286 25.1851H46.4834V25.1921ZM42.4578 11.3187C44.8282 11.3187 46.4062 9.96609 46.4062 7.97217C46.4062 5.97825 44.8247 4.62561 42.4578 4.62561H35.4972V11.3187H42.4578V11.3187ZM105.464 25.1921H100.544L89.6845 0H95.3196L102.982 18.3483L110.682 0H116.317L105.464 25.1886V25.1921ZM143.293 25.1921H124.144V0H143.22V4.62211H129.263V10.3025H142.129V14.851H129.263V20.5665H143.297V25.1886L143.293 25.1921ZM149.342 3.44118H148.56V0.693842H147.533V0H150.373V0.693842H149.346V3.44118H149.342ZM152.852 2.62468H152.786L151.835 1.11786V3.44118H151.095V0H151.923L152.828 1.45076L153.732 0H154.539V3.44118H153.799V1.11786L152.849 2.62468H152.852Z" fill="#F8F4F1"/>
</g>
<defs>
<clipPath id="clip0_4204_12337">
<rect width="154.535" height="25.1886" fill="white"/>
</clipPath>
</defs>
</svg>
