<svg width="83" height="40" viewBox="0 0 83 40" fill="none" xmlns="http://www.w3.org/2000/svg">
<g clip-path="url(#clip0_4204_12268)">
<path d="M36.8135 0.851338C38.5349 0.851621 40.575 0.777741 40.644 3.17687C40.6439 4.63036 40.7075 6.10939 40.6175 7.55939C40.5433 8.75419 39.7827 9.26789 38.7391 9.5374C38.1464 9.63269 37.4266 9.61001 36.815 9.61083C36.7977 9.14088 36.8077 8.60175 36.8057 8.12656C37.1835 8.12726 38.2912 8.17318 38.4476 7.81596C38.6663 7.09165 38.5989 6.05568 38.5907 5.29216C38.5835 4.62655 38.6553 3.40306 38.5243 2.81187C38.1287 2.22092 37.4336 2.34419 36.8027 2.35636L36.8135 0.851338Z" fill="#F8F4F1"/>
<path d="M34.4862 27.3786L36.5108 27.3758C36.5446 28.4569 36.5216 29.6514 36.5219 30.7396L36.5143 36.1284C36.4343 36.1705 34.6857 36.1393 34.4877 36.1374C34.4415 33.2631 34.4862 30.2634 34.4862 27.3786Z" fill="#F8F4F1"/>
<path d="M34.4874 0.858153L36.4914 0.854248L36.4916 9.6169C35.8382 9.59459 35.1432 9.60769 34.4863 9.60986L34.4874 0.858153Z" fill="#F8F4F1"/>
<path d="M52.625 27.2574C53.1913 27.2322 53.8816 27.2472 54.4573 27.2442C54.4037 30.1646 54.4622 33.217 54.4499 36.1541C53.8775 36.1237 53.2146 36.1393 52.6344 36.141L52.625 27.2574Z" fill="#F8F4F1"/>
<path d="M80.1977 13.9975C80.8008 13.9849 81.4322 13.9949 82.0373 13.9957L82.0336 22.8982C81.4747 22.8626 80.7681 22.8822 80.1973 22.8841L80.1977 13.9975Z" fill="#F8F4F1"/>
<path d="M52.4232 13.9948L54.2457 13.995C54.2121 14.8914 54.2403 15.9919 54.2403 16.9045L54.2342 22.901C53.7706 22.8553 52.8942 22.8832 52.4199 22.8893L52.4232 13.9948Z" fill="#F8F4F1"/>
<path d="M64.4766 27.2532C65.0826 27.2428 65.7061 27.2516 66.3134 27.2532C66.2663 28.1482 66.3023 29.3752 66.3023 30.3011L66.2953 36.1381C65.9492 36.172 64.887 36.1425 64.4835 36.1436C64.4872 33.1909 64.5105 30.2025 64.4766 27.2532Z" fill="#F8F4F1"/>
<path d="M76.4165 16.7557C78.5016 16.7189 79.1551 17.3189 79.0663 19.3628C79.0254 20.3061 79.0295 22.0204 79.2917 22.8922C78.7062 22.8692 78.0372 22.8836 77.4406 22.8762C77.2393 22.515 77.2127 22.4243 77.2017 22.011C77.1996 21.4119 77.304 18.7026 77.1174 18.2867C77.0732 18.1882 76.9926 18.1304 76.894 18.0942C76.6738 18.0134 76.3089 18.0463 76.0994 18.1464C75.8919 18.2454 75.8166 18.4581 75.7426 18.6597L73.9336 18.6572C74.105 17.0987 75.0449 16.8342 76.4165 16.7557Z" fill="#F8F4F1"/>
<path d="M48.3243 1.8368C48.9077 1.82355 49.5325 1.83532 50.1193 1.83611L50.114 5.73961C50.1128 6.43252 50.0915 7.129 50.1443 7.81949C50.2032 8.59264 50.9106 8.50508 51.4782 8.4251C51.4839 8.84679 51.4814 9.27679 51.4827 9.69926C50.4786 9.84903 49.0333 9.87588 48.5464 8.79456C48.2215 8.07258 48.321 6.76772 48.321 5.96339L48.3243 1.8368Z" fill="#F8F4F1"/>
<path d="M66.0869 1.83634L67.8713 1.83252L67.8676 5.7466C67.8672 6.43526 67.8476 7.12191 67.8979 7.8086C67.9544 8.58653 68.6545 8.51518 69.2339 8.42591L69.2347 9.70019C65.8794 10.0911 66.0795 8.62848 66.0808 5.98479L66.0869 1.83634Z" fill="#F8F4F1"/>
<path d="M49.8794 30.1637L51.5578 30.162L51.5595 33.9037C51.5607 35.7942 51.8737 37.5643 49.5418 38.0648C48.998 38.1657 48.478 38.1017 47.9395 38.0196L47.9297 36.8268C48.0704 36.8358 48.2108 36.8429 48.3515 36.8481C49.9187 36.8996 49.8913 36.346 49.8843 34.9948C49.8823 34.6493 49.8843 34.2746 49.8839 33.927L49.8794 30.1637Z" fill="#F8F4F1"/>
<path d="M36.2454 15.9465L38.2186 15.9461C38.3076 18.1482 38.2281 20.6655 38.2507 22.8987C37.8147 22.8506 36.7136 22.8842 36.2269 22.8888C36.1924 21.3435 36.2449 19.7758 36.2246 18.2281C36.2148 17.48 36.2133 16.6914 36.2454 15.9465Z" fill="#F8F4F1"/>
<path d="M60.7001 30.0152C60.8041 30.0162 60.764 30.0045 60.8515 30.0598C60.91 30.2917 60.8806 31.0415 60.8749 31.3243C60.6617 31.3437 60.4698 31.3467 60.3212 31.5229C60.1527 31.7052 60.2095 31.927 60.4235 32.0603C61.4542 32.7034 63.3054 32.9131 63.5386 34.3605C63.5938 34.7046 63.4412 35.3069 63.2104 35.5674C62.7182 36.1237 61.9555 36.2433 61.2562 36.2973C61.1981 36.3086 61.174 36.2952 61.1179 36.2774C61.0385 36.0722 61.0754 35.2624 61.0823 34.9911C61.3499 34.9615 62.0136 34.8807 61.8827 34.4639C61.7165 33.9354 60.4837 33.7038 60.0107 33.4724C59.3257 33.1371 58.6469 32.837 58.5728 31.9628C58.4624 30.5096 59.4587 30.1086 60.7001 30.0152Z" fill="#F8F4F1"/>
<path d="M47.9756 30.0965C48.4716 30.047 49.0514 30.2348 49.5047 30.4082C49.5145 30.7464 49.5051 31.11 49.5019 31.4503C49.2617 31.3349 48.4654 31.1943 48.4016 31.5595C48.2576 32.3844 48.2604 33.5055 48.4306 34.3352C48.4548 34.4544 48.5812 34.5368 48.6856 34.5837C49.1839 34.7744 49.3014 34.4885 49.4765 34.4232C49.5861 34.709 49.5739 35.3901 49.3259 35.6143C49.1046 35.7582 48.8541 35.8515 48.5927 35.8874C46.2526 36.2044 46.4118 33.7774 46.4584 32.2532C46.4956 31.0483 46.6 30.2475 47.9756 30.0965Z" fill="#F8F4F1"/>
<path d="M61.7179 16.7545C63.8583 16.6396 63.6312 18.5875 63.63 20.0542L63.6271 22.905C63.319 22.8659 62.747 22.8832 62.418 22.8838L61.7461 22.8825L61.7498 20.0818C61.7511 19.5682 61.7768 19.0339 61.72 18.5257C61.65 17.8964 61.0415 17.9872 60.5915 18.0708C60.5403 17.9019 60.5673 17.2877 60.5706 17.0757C61.0244 16.8357 61.2126 16.7937 61.7179 16.7545Z" fill="#F8F4F1"/>
<path d="M43.5851 30.0211C45.7852 30.052 45.5143 31.6765 45.5115 33.3146L45.507 36.1461C45.1215 36.1347 44.6923 36.1411 44.3036 36.1394L43.6256 36.1389C43.6272 35.4271 43.734 32.0244 43.5462 31.596C43.4881 31.4636 43.3568 31.3519 43.2225 31.3021C42.9742 31.21 42.7148 31.2741 42.4823 31.3763C42.4783 31.0329 42.4774 30.6895 42.4799 30.3461C42.8645 30.1117 43.1526 30.0566 43.5851 30.0211Z" fill="#F8F4F1"/>
<path d="M67.4249 30.0487C67.5403 30.0393 67.6557 30.0317 67.7711 30.026C69.8718 29.9299 69.6639 31.7384 69.6664 33.2109C69.668 34.1839 69.6509 35.1741 69.6672 36.146L68.8075 36.1392L67.7842 36.1395C67.7858 35.3312 67.8955 32.0935 67.6848 31.6155C67.623 31.4745 67.4933 31.3487 67.348 31.2967C67.1001 31.2079 66.8615 31.281 66.6348 31.3897C66.6279 31.0421 66.627 30.6944 66.6324 30.3468C66.9053 30.1922 67.1246 30.1214 67.4249 30.0487Z" fill="#F8F4F1"/>
<path d="M55.6867 16.7551C57.8459 16.6336 57.6032 18.6245 57.6004 20.1017L57.5987 22.8967C57.2305 22.8719 56.7485 22.884 56.372 22.8829L55.7259 22.8843L55.7276 20.1245C55.7288 19.6126 55.7599 19.0545 55.6895 18.5503C55.5905 17.8405 55.0242 18.0575 54.5852 18.0526C54.5487 17.8927 54.5708 17.274 54.5737 17.0749C54.9804 16.8383 55.23 16.7887 55.6867 16.7551Z" fill="#F8F4F1"/>
<path d="M42.1748 16.754C42.2902 16.7382 42.3442 16.717 42.4424 16.7741C42.5607 16.9854 42.5022 17.7418 42.4997 18.0457C41.8295 18.2189 41.9256 18.5948 41.9089 19.2017L42.4989 19.1996L42.4923 20.107L41.9142 20.0961C41.9244 20.8036 41.7145 21.4198 42.494 21.7126C42.5022 22.1513 42.496 22.6101 42.496 23.0505C42.2239 23.021 41.9813 22.9826 41.7112 22.9376C39.9618 22.506 40.0744 21.3636 40.0543 19.9535C40.0282 18.1194 40.009 16.9884 42.1748 16.754Z" fill="#F8F4F1"/>
<path d="M43.8635 3.49357L44.003 3.4837C44.1241 3.64248 44.073 4.52107 44.0693 4.78889C43.4019 4.9683 43.4858 5.33899 43.4887 5.93968L44.0713 5.93845L44.0672 6.85252C43.886 6.84356 43.6773 6.84524 43.4932 6.84213C43.4731 7.53029 43.3041 8.18235 44.066 8.46614L44.0668 9.77207C43.762 9.74272 43.5337 9.71468 43.2329 9.65987C41.2255 9.14772 41.6785 7.46816 41.6232 5.90067C41.5635 4.21951 42.2677 3.62333 43.8635 3.49357Z" fill="#F8F4F1"/>
<path d="M58.6976 3.49206C58.7683 3.47474 58.8199 3.48363 58.8923 3.48882C59.0167 3.65735 58.9607 4.48951 58.9566 4.76683C58.7569 4.83003 58.439 4.9189 58.3817 5.15803C58.2601 5.77419 58.2872 6.47333 58.2998 7.10664C58.3154 7.8734 58.182 8.23005 58.9594 8.48248C58.957 8.9135 58.9574 9.34453 58.9611 9.77551C58.4713 9.72799 58.1636 9.69303 57.6959 9.54616C56.0265 8.84547 56.5187 7.1443 56.4536 5.67575C56.3841 4.11035 57.2867 3.62071 58.6976 3.49206Z" fill="#F8F4F1"/>
<path d="M59.1833 3.466C60.2059 3.56813 61.4641 3.76559 61.613 5.08232C61.6928 6.09922 61.7276 7.22217 61.5836 8.23195C61.5042 8.78937 61.1065 9.13309 60.6715 9.40902C60.1138 9.6797 59.7865 9.7118 59.1719 9.75948C59.187 9.34254 59.1788 8.87549 59.1801 8.45442C59.7312 8.25458 59.8433 8.04935 59.8249 7.43245C59.8024 6.67785 59.9215 5.81142 59.7157 5.08912C59.6686 4.92354 59.3175 4.82661 59.1817 4.79162L59.1833 3.466Z" fill="#F8F4F1"/>
<path d="M48.4694 16.7564C48.5255 16.7487 48.539 16.7625 48.591 16.7868C48.6483 16.9702 48.6241 17.785 48.6212 18.0362C48.512 18.0788 48.1736 18.2088 48.1446 18.3716C48.0009 19.1749 48.012 20.5478 48.1396 21.3567C48.1654 21.5199 48.5132 21.6626 48.6159 21.7072C48.6221 22.1465 48.6147 22.6042 48.6131 23.0451C48.0848 22.9958 47.7526 22.9369 47.2681 22.7338C46.2603 22.2075 46.2042 21.4314 46.1981 20.4388C46.1862 18.4362 45.9285 16.9296 48.4694 16.7564Z" fill="#F8F4F1"/>
<path d="M69.7788 16.7552L69.9019 16.7552C70.0144 16.9169 69.9658 17.7582 69.9629 18.0229C69.8405 18.0727 69.5148 18.2098 69.4829 18.3872C69.3409 19.1819 69.3467 20.5455 69.4788 21.3408C69.5095 21.5256 69.8438 21.6531 69.9613 21.6996L69.9617 23.0478C69.4494 22.991 69.1846 22.9498 68.7026 22.7762C67.1449 21.9917 67.6216 20.5626 67.5459 19.1473C67.4571 17.4931 68.2558 16.8903 69.7788 16.7552Z" fill="#F8F4F1"/>
<path d="M58.4604 16.8896L60.2714 16.8925L60.2718 21.0475C60.2718 21.3721 60.2919 22.6602 60.253 22.896C59.7333 22.8581 58.9751 22.884 58.4485 22.8898C58.417 21.0203 58.4158 18.748 58.4604 16.8896Z" fill="#F8F4F1"/>
<path d="M40.332 30.164C40.9326 30.1549 41.5517 30.1622 42.154 30.1618L42.1458 36.1517C41.5603 36.1259 40.9244 36.1399 40.334 36.1432L40.332 30.164Z" fill="#F8F4F1"/>
<path d="M52.1254 3.6384L53.9372 3.63312L53.9384 9.61358C53.3656 9.59299 52.706 9.60818 52.1266 9.60798C52.0996 7.64037 52.1213 5.60981 52.1254 3.6384Z" fill="#F8F4F1"/>
<path d="M62.6875 3.63967L64.4772 3.63516L64.4789 9.61272C63.9089 9.59414 63.2648 9.60801 62.6891 9.6074L62.6875 3.63967Z" fill="#F8F4F1"/>
<path d="M64.7303 16.896L66.4926 16.8917L66.4979 22.8941C65.9332 22.8696 65.2937 22.8843 64.7229 22.8862C64.6795 21.58 64.7315 20.244 64.7119 18.9341C64.7016 18.2658 64.7029 17.562 64.7303 16.896Z" fill="#F8F4F1"/>
<path d="M55.5664 30.1705C56.1327 30.149 56.7808 30.1634 57.3537 30.1633L57.3566 36.1477C56.7948 36.1242 56.1372 36.1402 55.568 36.1409L55.5664 30.1705Z" fill="#F8F4F1"/>
<path d="M34.1268 14.1175C36.1817 14.143 38.2942 14.1241 40.3523 14.1173C40.373 14.5821 40.3602 15.0984 40.3643 15.569C40.1543 15.6443 34.7672 15.5974 34.123 15.5971L34.1268 14.1175Z" fill="#F8F4F1"/>
<path d="M76.6992 18.8817L76.7712 18.8788C76.8424 19.0022 76.8203 19.8311 76.8211 20.0252C76.2753 20.1401 75.3996 20.481 75.5159 21.1861C75.5367 21.3179 75.6116 21.435 75.7221 21.5096C76.0306 21.7182 76.4643 21.6224 76.8039 21.5549C76.8203 21.9328 76.8138 22.3363 76.8142 22.7163C76.2041 22.9961 75.8141 22.9829 75.1664 22.9214C74.3657 22.7808 73.7953 22.3427 73.6697 21.5078C73.3853 19.6189 75.2491 19.0811 76.6992 18.8817Z" fill="#F8F4F1"/>
<path d="M42.8014 16.7481C45.3059 16.8822 45.2945 17.9783 45.2752 20.0977L44.6607 20.0929L42.7924 20.0918L42.7928 19.2072L43.4315 19.2006C43.4311 19.0338 43.4397 18.6908 43.3984 18.5401C43.2862 18.128 43.116 18.2041 42.8652 18.0571C42.7343 17.8409 42.7936 17.0389 42.8014 16.7481Z" fill="#F8F4F1"/>
<path d="M44.3832 3.50412C46.9001 3.56364 46.8645 4.81463 46.8448 6.84445L46.3374 6.83614L44.3828 6.83684L44.3832 5.93897L44.997 5.9373C45.0019 5.31585 45.0575 4.97869 44.3849 4.79797L44.3832 3.50412Z" fill="#F8F4F1"/>
<path d="M49.5964 20.3323C50.2078 20.3337 50.8195 20.3301 51.4308 20.3217C51.4504 21.3634 51.4287 22.0645 50.4537 22.6832C49.9655 22.9263 49.5117 22.9785 48.9815 23.0506C48.9786 22.6982 48.9663 22.338 48.9692 21.9875C48.9737 21.525 49.085 21.7787 49.3792 21.5051C49.6419 21.2611 49.5924 20.6906 49.5964 20.3323Z" fill="#F8F4F1"/>
<path d="M70.9446 20.3285L72.7834 20.3265C72.8002 21.3638 72.7605 22.0424 71.8211 22.67C71.3129 22.9245 70.8894 22.9786 70.3321 23.0422C70.3153 22.6076 70.3247 22.1463 70.3267 21.7095C71.051 21.4275 70.9393 20.9999 70.9446 20.3285Z" fill="#F8F4F1"/>
<path d="M70.3352 16.7503L70.4384 16.7566C72.1839 16.8674 72.9245 17.6084 72.7719 19.4209C72.1622 19.4094 71.553 19.4092 70.9437 19.4204C70.9449 18.7534 71.0767 18.2462 70.325 18.0446C70.3222 17.6175 70.3119 17.1757 70.3352 16.7503Z" fill="#F8F4F1"/>
<path d="M48.9824 16.7394C50.9485 16.9034 51.4596 17.462 51.4313 19.4317C50.8798 19.3941 50.1551 19.4125 49.59 19.412C49.5974 18.7656 49.7324 18.2269 48.9824 18.0545V16.7394Z" fill="#F8F4F1"/>
<path d="M43.4584 20.7464C44.0521 20.7608 44.6892 20.7499 45.2866 20.7506C45.2289 21.6868 45.1151 22.1048 44.3066 22.6785C43.8054 22.9346 43.3446 22.9824 42.7939 23.0405L42.791 21.7107C43.3815 21.5079 43.3835 21.3222 43.4584 20.7464Z" fill="#F8F4F1"/>
<path d="M58.3105 33.9706C58.8412 33.9539 59.4325 33.9649 59.9677 33.9634C60.0066 34.614 60.2288 34.8199 60.8245 34.9746L60.8196 36.2871C60.5225 36.4369 59.2782 35.9826 59.0098 35.7252C58.4493 35.1873 58.3752 34.6875 58.3105 33.9706Z" fill="#F8F4F1"/>
<path d="M45.0122 7.48898L46.8543 7.48935C46.7999 8.3927 46.6706 8.90182 45.8584 9.41889C45.3232 9.66453 44.9607 9.71152 44.3809 9.75487L44.3825 8.45656C44.9382 8.21472 44.9705 8.07027 45.0122 7.48898Z" fill="#F8F4F1"/>
<path d="M36.8262 34.628C37.6903 34.6166 38.5782 34.6259 39.4442 34.6255L39.441 36.1512C38.6341 36.1159 37.6491 36.1389 36.8278 36.1383L36.8262 34.628Z" fill="#F8F4F1"/>
<path d="M36.8294 27.3736C37.6991 27.3788 38.5689 27.3788 39.4387 27.3734C39.4514 27.8593 39.4414 28.3782 39.4393 28.8672C38.6306 28.8249 37.6474 28.8507 36.8262 28.8511L36.8294 27.3736Z" fill="#F8F4F1"/>
<path d="M61.1249 30.0274C62.5644 30.0359 63.3942 30.6252 63.4694 32.1288C63.0018 32.1048 62.3667 32.1243 61.8863 32.1251C61.7963 31.5814 61.649 31.426 61.1191 31.3141L61.1249 30.0274Z" fill="#F8F4F1"/>
<path d="M36.8284 30.8591C37.654 30.8532 38.4796 30.853 39.3052 30.8582C39.2717 31.155 39.2895 31.9564 39.2893 32.2906C38.4884 32.3159 37.633 32.2986 36.8281 32.2954L36.8284 30.8591Z" fill="#F8F4F1"/>
<path d="M64.6992 14.6586C65.2815 14.6394 65.9411 14.6534 66.5291 14.6526L66.527 16.1133C66.0049 16.0713 65.2606 16.0937 64.7197 16.0966C64.7041 15.6262 64.7054 15.1312 64.6992 14.6586Z" fill="#F8F4F1"/>
<path d="M62.7768 1.40595L64.519 1.39841C64.5203 1.8174 64.5362 2.36089 64.5035 2.76948L64.4433 2.81917L62.69 2.81741C62.6863 2.56441 62.6614 1.65451 62.7056 1.44241L62.7768 1.40595Z" fill="#F8F4F1"/>
<path d="M55.5645 27.9282C56.1197 27.9006 56.8227 27.9194 57.389 27.9192C57.3616 28.2943 57.3796 28.9537 57.3783 29.35C56.7981 29.3293 56.1533 29.3434 55.5681 29.3448L55.5645 27.9282Z" fill="#F8F4F1"/>
<path d="M55.269 3.60625L55.7285 3.59094L55.7244 5.08888C55.2465 4.97939 55.0358 4.9491 54.5652 5.13031C54.4465 5.21463 54.3455 5.29175 54.2317 5.38278C54.2231 4.97947 54.2047 4.55127 54.2375 4.15107C54.6073 3.77289 54.7616 3.71616 55.269 3.60625Z" fill="#F8F4F1"/>
<path d="M68.1619 3.63775L68.914 3.63705L68.9255 5.00495C68.7917 5.04277 68.3215 5.02861 68.1562 5.02783C68.1497 4.56447 68.1513 4.10103 68.1619 3.63775Z" fill="#F8F4F1"/>
<path d="M50.4084 3.6319L51.1711 3.63722C51.1678 4.10353 51.1695 4.56988 51.1756 5.03618C50.9452 5.02358 50.6404 5.03172 50.4043 5.03148L50.4084 3.6319Z" fill="#F8F4F1"/>
<path d="M47.3947 3.63678L48.1067 3.63784L48.1095 5.03382L47.3906 5.03239L47.3947 3.63678Z" fill="#F8F4F1"/>
<path d="M65.1567 3.63428L65.8515 3.63514C65.849 4.10091 65.8413 4.57242 65.865 5.03721C65.6428 5.02768 65.3728 5.03382 65.1465 5.03332C65.1465 4.56698 65.1498 4.10063 65.1567 3.63428Z" fill="#F8F4F1"/>
<path d="M0 0H30.6764L30.6736 12.6934L30.6758 21.2438L30.675 24.4706C30.6751 25.3205 30.6949 26.1854 30.609 27.0312C29.7673 35.3191 21.3405 40.5452 13.4713 39.5613C12.4593 39.4385 11.3557 39.2303 10.3792 38.93C5.33762 37.3794 1.07745 33.2416 0.168939 27.9361C0.100295 27.5353 0.0751038 27.1246 0 26.7223V0Z" fill="black"/>
<path d="M0 0H30.6764L30.6736 12.6934C30.6479 12.7163 30.63 12.7149 30.5912 12.726C29.3405 11.5608 28.1003 10.1867 26.8568 8.99759C26.3728 8.53468 25.8088 7.89817 25.3067 7.48368C25.1761 7.45532 25.2316 7.44901 25.0951 7.52646C23.4084 4.65989 21.0147 4.98072 18.1184 4.98289L11.1982 4.986C9.5885 4.98592 6.37091 5.12705 4.98388 4.45952C5.33663 5.91325 5.79589 6.8367 6.95975 7.8405C7.16258 8.01544 7.47572 8.19637 7.70114 8.36215L7.63252 8.41843C7.65556 8.64217 7.90057 8.83906 8.07455 8.98064C8.14894 9.0409 8.22402 9.10025 8.29984 9.15874C7.33382 10.2401 6.98123 11.3767 6.94756 12.819C5.86582 13.6005 5.05181 14.4853 4.81465 15.8392C4.76031 16.1493 4.68044 16.9355 5.09064 16.9794L5.24702 16.908C5.26552 17.06 5.27076 17.2406 5.35865 17.3606C5.5046 17.4646 5.67199 17.4383 5.85842 17.4393C5.11601 18.2449 4.77819 19.1767 4.81228 20.2807C4.81702 20.4343 4.83597 20.6198 4.93671 20.7415C5.10328 20.8107 5.13286 20.8027 5.28005 20.6758C5.51536 20.2057 5.83787 19.6928 6.39313 19.5629C6.69338 19.4926 6.87448 19.798 6.91851 20.053C7.0411 20.6402 6.97755 24.8171 6.86392 25.4703C6.76916 26.0149 6.61862 26.4658 6.31469 26.9298C6.13187 27.2089 5.61631 27.7018 5.66197 28.0489C5.80236 28.232 5.94696 28.1772 6.16071 28.1566C6.11849 28.2919 6.06714 28.4032 6.10822 28.5372L6.17614 28.5975C6.3714 28.5809 6.44837 28.55 6.60487 28.645C6.59145 28.8668 6.52202 28.8036 6.57263 29.0062C6.89437 29.245 7.20964 28.8571 7.02772 29.3909C7.08332 29.5236 7.12346 29.544 7.27007 29.5862C6.8309 30.0805 5.85522 31.089 5.66234 31.6556L5.67862 31.7543C5.82867 31.8214 6.24656 31.6136 6.43368 31.5542C6.32504 31.7079 6.19697 31.8601 6.16182 32.0426L6.18702 32.1388C6.41338 32.2376 6.67055 32.0863 6.91638 31.99L6.93336 31.9833C6.81135 32.1433 6.67096 32.3003 6.62005 32.4928L6.6372 32.602C6.86916 32.7248 7.14012 32.5405 7.37425 32.4425C7.22674 32.6534 7.05885 32.822 7.10084 33.0647C7.30812 33.1858 7.6182 33.0076 7.83273 32.9159C7.71014 33.0904 7.49094 33.3257 7.54921 33.5416C7.76681 33.6612 8.09399 33.4652 8.32178 33.375C8.20627 33.525 8.05553 33.6916 8.01105 33.871L8.02664 33.9718C8.25357 34.0979 8.5406 33.9215 8.77175 33.821C8.65853 33.982 8.50697 34.1654 8.46797 34.3531L8.48807 34.4542C8.72506 34.5645 9.00522 34.3824 9.23939 34.2805C9.10621 34.457 8.77981 34.782 9.01075 34.9538C9.20826 34.9773 9.47176 34.8472 9.6712 34.7734C9.55712 34.9357 9.41514 35.1067 9.37553 35.2974L9.39909 35.396C9.61702 35.4881 9.80463 35.3653 10.0367 35.2709C10.0762 35.2545 10.1158 35.2384 10.1555 35.2226C10.0375 35.3816 9.89408 35.5448 9.85119 35.7347L9.86989 35.8329C10.0963 35.9418 10.3943 35.7657 10.6241 35.6746C10.4965 35.8455 10.172 36.1762 10.401 36.3393C10.6224 36.3545 10.8735 36.2158 11.0876 36.1229C10.9601 36.2942 10.6133 36.649 10.8491 36.811C11.032 36.8312 11.3174 36.6911 11.4999 36.6192C11.4023 36.7893 11.2629 36.9674 11.2461 37.1481C11.3586 37.4078 11.7773 37.1657 11.9882 37.0833C11.867 37.2472 11.6618 37.4612 11.7062 37.6706C11.9227 37.8024 12.2437 37.6077 12.4727 37.515C12.3551 37.6761 12.2061 37.8509 12.1595 38.0407L12.1763 38.1404C12.4091 38.2535 12.6856 38.0837 12.9201 37.9889C12.7893 38.1633 12.5764 38.3818 12.6215 38.6069C12.833 38.7343 13.1732 38.5357 13.3968 38.4452C13.2774 38.5988 13.1428 38.7474 13.0889 38.9327L13.1031 39.0454C13.3247 39.1775 13.613 39.0171 13.8454 38.9241C13.6601 39.1665 13.5803 39.2666 13.4713 39.5613C12.4593 39.4385 11.3557 39.2303 10.3792 38.93C5.33762 37.3794 1.07745 33.2416 0.168939 27.9361C0.100295 27.5353 0.0751038 27.1246 0 26.7223V0Z" fill="#F8F4F1"/>
<path d="M5.2793 20.6757C5.51461 20.2056 5.83713 19.6928 6.39238 19.5628C6.69263 19.4925 6.87373 19.7979 6.91776 20.0529C6.90029 20.4084 6.93744 22.434 6.85016 22.5754C6.61689 22.4091 6.74615 22.086 6.57413 22.1303C6.42818 22.1679 6.46971 22.1906 6.33448 22.1296C6.18926 21.9225 6.2632 21.7511 6.14147 21.6374L5.98746 21.7275C5.6845 21.6408 5.85161 21.3629 5.67125 21.1997C5.49334 21.2233 5.51118 21.2507 5.38589 21.1773C5.29705 21.0555 5.28834 20.8302 5.2793 20.6757Z" fill="#F8F4F1"/>
<path d="M25.0934 7.52649C25.23 7.44905 25.1744 7.45535 25.305 7.48372C25.8071 7.8982 26.3711 8.53471 26.8552 8.99762C28.0986 10.1868 29.3388 11.5608 30.5896 12.726C30.6284 12.7149 30.6462 12.7164 30.672 12.6934L30.6741 21.2438L30.6733 24.4707C30.6735 25.3205 30.6932 26.1855 30.6073 27.0312C29.7657 35.3192 21.3388 40.5453 13.4696 39.5614C13.5786 39.2666 13.6585 39.1666 13.8437 38.9242C13.6113 39.0172 13.3231 39.1775 13.1015 39.0455L13.0872 38.9327C13.1412 38.7474 13.2758 38.5988 13.3951 38.4453C13.1715 38.5357 12.8313 38.7343 12.6199 38.6069C12.5748 38.3819 12.7877 38.1633 12.9185 37.989C12.6839 38.0838 12.4075 38.2535 12.1746 38.1404L12.1578 38.0407C12.2044 37.851 12.3535 37.6762 12.471 37.515C12.242 37.6077 11.921 37.8024 11.7045 37.6706C11.6601 37.4612 11.8654 37.2473 11.9866 37.0834C11.7756 37.1657 11.3569 37.4078 11.2445 37.1481C11.2613 36.9674 11.4007 36.7894 11.4982 36.6192C11.3158 36.6911 11.0303 36.8313 10.8474 36.8111C10.6116 36.649 10.9584 36.2942 11.0859 36.1229C10.8718 36.2158 10.6207 36.3545 10.3993 36.3393C10.1704 36.1762 10.4949 35.8455 10.6224 35.6746C10.3926 35.7657 10.0946 35.9418 9.86823 35.8329L9.84953 35.7348C9.89241 35.5449 10.0358 35.3816 10.1538 35.2226C10.1141 35.2384 10.0745 35.2545 10.0351 35.271C9.80297 35.3653 9.61536 35.4881 9.39743 35.3961L9.37386 35.2974C9.41347 35.1068 9.55546 34.9357 9.66953 34.7734C9.4701 34.8473 9.20659 34.9773 9.00908 34.9538C8.77814 34.782 9.10454 34.457 9.23773 34.2805C9.00356 34.3825 8.7234 34.5646 8.4864 34.4543L8.46631 34.3531C8.50531 34.1654 8.65687 33.9821 8.77008 33.821C8.53894 33.9216 8.2519 34.0979 8.02497 33.9719L8.00939 33.871C8.05386 33.6917 8.2046 33.5251 8.32011 33.375C8.09233 33.4652 7.76515 33.6612 7.54755 33.5416C7.48928 33.3257 7.70848 33.0904 7.83107 32.916C7.61654 33.0076 7.30646 33.1859 7.09917 33.0647C7.05719 32.8221 7.22508 32.6534 7.37258 32.4426C7.13845 32.5405 6.8675 32.7248 6.63554 32.6021L6.61839 32.4928C6.66929 32.3003 6.80968 32.1433 6.9317 31.9833L6.91472 31.99C6.66888 32.0863 6.41172 32.2377 6.18536 32.1388L6.16016 32.0427C6.1953 31.8601 6.32338 31.7079 6.43201 31.5542C7.23686 31.2472 8.06016 30.991 8.89705 30.7871C11.9149 30.0378 15.456 29.8897 18.2029 31.5463C20.2668 29.0227 22.6216 27.8299 25.8894 27.9766C25.4958 26.366 25.3713 23.9485 25.3315 22.3144C25.2792 19.5884 25.3244 16.8613 25.467 14.1385C25.5112 13.2178 25.5507 12.2969 25.5854 11.3758C25.6453 9.84166 25.7542 8.9571 25.0934 7.52649Z" fill="#F8F4F1"/>
<path d="M6.15938 28.1567C7.55454 27.9146 8.72466 27.3791 9.70178 26.3383C10.8652 25.099 10.7452 23.6208 10.7396 22.0461C10.7379 21.5868 10.7397 21.1224 10.7396 20.6622L10.7377 13.7574C10.7368 12.3626 10.4125 9.53635 12.0768 9.03741C12.0767 14.7431 12.0117 20.5734 12.0831 26.2681C10.0862 26.9763 8.73277 28.0784 7.26873 29.5863C7.12213 29.5442 7.08199 29.5238 7.02638 29.391C7.2083 28.8572 6.89303 29.2451 6.57129 29.0063C6.52068 28.8037 6.59012 28.867 6.60354 28.6451C6.44703 28.5501 6.37006 28.581 6.1748 28.5976L6.10688 28.5373C6.0658 28.4033 6.11715 28.2921 6.15938 28.1567Z" fill="#F8F4F1"/>
<path d="M5.24609 16.9081C5.55645 16.2405 6.32333 15.7568 6.95072 15.4317L6.95318 16.584C6.45582 16.894 6.26539 17.0257 5.85748 17.4393C5.67106 17.4383 5.50367 17.4647 5.35772 17.3607C5.26983 17.2406 5.26459 17.06 5.24609 16.9081Z" fill="#F8F4F1"/>
<path d="M7.69948 8.36215C8.06741 8.54037 8.32323 8.66014 8.71112 8.8021C8.58416 8.90988 8.41451 9.0454 8.29818 9.15875C8.22236 9.10025 8.14728 9.0409 8.07289 8.98065C7.89891 8.83906 7.6539 8.64217 7.63086 8.41843L7.69948 8.36215Z" fill="#F8F4F1"/>
<path d="M14.2631 8.76368L15.5544 8.76364L15.5548 26.2971C15.1207 26.1899 14.7062 26.1352 14.2653 26.0753C14.232 24.1619 14.2634 22.1518 14.2633 20.232L14.2631 8.76368Z" fill="#F8F4F1"/>
<path d="M21.6404 21.5769C21.7139 21.6547 21.6838 26.1753 21.6835 26.6164C20.9174 26.8915 20.0759 27.2586 19.4135 27.7256C18.9683 27.5044 18.5494 27.3195 18.094 27.1208C17.9884 27.0873 17.9711 27.0832 17.8881 27.0107C17.8503 26.8163 17.8668 25.6511 17.8671 25.392L17.8724 21.6943C19.0942 22.3133 20.4713 22.3066 21.6404 21.5769Z" fill="#F8F4F1"/>
<path d="M19.1719 14.7456C20.1051 14.6232 20.9077 14.8037 21.6831 15.3174L21.6826 19.5733C21.2667 19.8901 20.9219 19.9927 20.4245 20.1109C19.4956 20.2643 18.7049 20.1599 17.8721 19.7229C17.8489 18.2284 17.8704 16.6688 17.8699 15.1693C18.3072 14.9164 18.6822 14.8317 19.1719 14.7456Z" fill="#F8F4F1"/>
<path d="M17.871 8.76394C20.2874 8.75387 21.9291 8.31589 21.6831 11.4922C21.6425 12.0166 21.7063 12.7108 21.674 13.2787L21.6275 13.2988L21.4127 13.1687C20.3046 12.559 18.9842 12.6572 17.8739 13.1977C17.8515 11.7387 17.8715 10.2272 17.871 8.76394Z" fill="#F8F4F1"/>
</g>
<defs>
<clipPath id="clip0_4204_12268">
<rect width="82.5532" height="40" fill="white"/>
</clipPath>
</defs>
</svg>
