<svg width="215" height="30" viewBox="0 0 215 30" fill="none" xmlns="http://www.w3.org/2000/svg">
<g clip-path="url(#clip0_4204_12249)">
<path d="M52.4777 4.02743C52.4436 4.05911 52.4035 4.08358 52.3598 4.09937C52.316 4.11516 52.2696 4.12195 52.2231 4.11933H44.2068C44.1298 4.11933 44.0901 4.15783 44.0901 4.23483V9.14147C44.0901 9.21847 44.1286 9.25696 44.2068 9.25696H49.6661C49.7729 9.25696 49.8573 9.28801 49.9182 9.34886C49.9803 9.41096 50.0101 9.4954 50.0101 9.60221V10.823C50.0128 10.8692 50.0061 10.9156 49.9903 10.9591C49.9745 11.0027 49.95 11.0426 49.9182 11.0763C49.8847 11.1081 49.8451 11.1327 49.8017 11.1485C49.7583 11.1643 49.7122 11.171 49.6661 11.1682H44.2068C44.1298 11.1682 44.0901 11.2067 44.0901 11.2837V17.9873C44.093 18.0336 44.0863 18.08 44.0705 18.1236C44.0547 18.1672 44.0301 18.207 43.9982 18.2407C43.9647 18.2725 43.9251 18.297 43.8817 18.3128C43.8383 18.3287 43.7922 18.3354 43.7461 18.3326H42.2248C42.1783 18.3353 42.1318 18.3286 42.088 18.3128C42.0443 18.297 42.0042 18.2725 41.9702 18.2407C41.9387 18.2068 41.9145 18.1669 41.8989 18.1233C41.8833 18.0798 41.8767 18.0335 41.8795 17.9873V2.55084C41.8795 2.44404 41.9094 2.3596 41.9702 2.2975C42.0043 2.26594 42.0445 2.24155 42.0882 2.22577C42.1319 2.20998 42.1784 2.20312 42.2248 2.2056H52.2231C52.3312 2.2056 52.4144 2.23665 52.4777 2.2975C52.5091 2.33149 52.5334 2.37141 52.5492 2.41491C52.565 2.45841 52.5719 2.50463 52.5696 2.55084V3.77161C52.5722 3.81823 52.5655 3.86492 52.5497 3.90887C52.5339 3.95282 52.5094 3.99315 52.4777 4.02743ZM61.1634 6.74589C61.331 6.83779 61.3944 6.98434 61.3472 7.18428L61.0243 8.68198C61.0069 8.83597 60.9324 8.91297 60.7933 8.91297C60.7311 8.9152 60.6691 8.90723 60.6095 8.88937C60.3562 8.80897 60.0916 8.76997 59.8259 8.77388C59.7099 8.77142 59.5939 8.77932 59.4794 8.79747C58.7579 8.82852 58.1618 9.07814 57.6936 9.54756C57.2254 10.0158 56.9919 10.6268 56.9919 11.3793V17.9911C56.9948 18.0373 56.9881 18.0837 56.9723 18.1273C56.9565 18.1709 56.9319 18.2107 56.9 18.2444C56.8662 18.2761 56.8263 18.3006 56.7828 18.3164C56.7392 18.3322 56.6929 18.339 56.6467 18.3363H55.1254C55.0793 18.3391 55.0331 18.3324 54.9898 18.3166C54.9464 18.3008 54.9067 18.2762 54.8733 18.2444C54.8099 18.1836 54.7814 18.0991 54.7814 17.9911V6.95329C54.7814 6.84649 54.8099 6.76204 54.8733 6.70119C54.9067 6.6694 54.9464 6.64484 54.9898 6.62903C55.0331 6.61322 55.0793 6.6065 55.1254 6.60929H56.6467C56.7535 6.60929 56.8379 6.63909 56.9 6.70119C56.9621 6.76204 56.9919 6.84649 56.9919 6.95329V8.01385C56.9919 8.07594 57.0031 8.11071 57.0267 8.11817C57.049 8.12562 57.0751 8.10575 57.1062 8.0598C57.7979 7.01538 58.7343 6.49379 59.9178 6.49379C60.3797 6.49379 60.7945 6.577 61.1634 6.74589ZM65.5509 17.6558C64.7139 17.0795 64.1265 16.2773 63.7887 15.2478C63.5118 14.4194 63.3739 13.4818 63.3739 12.4374C63.3739 11.347 63.5031 10.4256 63.7651 9.67175C64.1016 8.65838 64.694 7.86358 65.5385 7.28735C66.3842 6.71112 67.3889 6.42425 68.5575 6.42425C69.664 6.42425 70.6277 6.71112 71.4498 7.28735C72.2694 7.86358 72.8581 8.65093 73.2108 9.64815C73.4877 10.4318 73.6256 11.3532 73.6256 12.4138C73.6256 13.488 73.4877 14.4331 73.2108 15.2465C72.8742 16.276 72.2893 17.0795 71.461 17.6545C70.6314 18.2307 69.6553 18.5176 68.5351 18.5176C67.3827 18.5189 66.3879 18.232 65.5509 17.6558ZM70.1471 16.0885C70.6078 15.7433 70.9382 15.2552 71.1381 14.6243C71.307 14.0407 71.3914 13.3191 71.3914 12.4598C71.3914 11.6004 71.3144 10.8851 71.1604 10.3163C70.9605 9.68665 70.6302 9.19984 70.1694 8.85336C69.7087 8.50687 69.1474 8.33425 68.4879 8.33425C67.8571 8.33425 67.3144 8.50811 66.8536 8.85336C66.3929 9.1986 66.0613 9.68665 65.8614 10.3163C65.6925 10.854 65.6093 11.5681 65.6093 12.4598C65.6093 13.3502 65.6925 14.073 65.8614 14.6243C66.0452 15.2552 66.373 15.742 66.8412 16.0885C67.3094 16.435 67.8745 16.6064 68.5339 16.6064C69.1143 16.6181 69.682 16.4359 70.1471 16.0885ZM85.3066 7.54069C86.0443 8.27092 86.4131 9.25696 86.4131 10.5013V17.9886C86.4157 18.0348 86.4089 18.0811 86.3931 18.1247C86.3773 18.1682 86.3529 18.2081 86.3212 18.2419C86.2873 18.2737 86.2472 18.2983 86.2034 18.3141C86.1596 18.3299 86.1131 18.3366 86.0667 18.3338H84.5466C84.5003 18.3367 84.454 18.33 84.4104 18.3142C84.3668 18.2984 84.3269 18.2738 84.2933 18.2419C84.2614 18.2083 84.2368 18.1684 84.221 18.1248C84.2051 18.0812 84.1985 18.0349 84.2014 17.9886V10.9397C84.2014 10.1722 83.9778 9.55005 83.5332 9.07317C83.0886 8.59753 82.4963 8.35909 81.7586 8.35909C81.0992 8.35909 80.5416 8.55531 80.0883 8.94774C79.635 9.33893 79.3692 9.86548 79.2935 10.5262V17.9911C79.2961 18.0373 79.2893 18.0836 79.2735 18.1271C79.2577 18.1707 79.2332 18.2106 79.2016 18.2444C79.1676 18.2762 79.1275 18.3008 79.0837 18.3165C79.04 18.3323 78.9934 18.3391 78.947 18.3363H77.4257C77.3796 18.3391 77.3335 18.3324 77.2901 18.3166C77.2467 18.3008 77.2071 18.2762 77.1736 18.2444C77.1417 18.2107 77.1171 18.1709 77.1013 18.1273C77.0855 18.0837 77.0788 18.0373 77.0817 17.9911V6.95329C77.0817 6.84649 77.1115 6.76204 77.1736 6.70119C77.2071 6.6694 77.2467 6.64484 77.2901 6.62903C77.3335 6.61322 77.3796 6.6065 77.4257 6.60929H78.947C79.055 6.60929 79.1395 6.63909 79.2016 6.70119C79.2331 6.73483 79.2575 6.77451 79.2733 6.81783C79.2891 6.86116 79.296 6.90724 79.2935 6.95329V7.59906C79.2935 7.64501 79.3084 7.67606 79.3394 7.69096C79.368 7.70711 79.3928 7.69965 79.4077 7.66737C80.0535 6.85394 81.0209 6.44785 82.3112 6.44785C83.5705 6.44785 84.5702 6.81171 85.3066 7.54069ZM95.8352 8.33549C95.8015 8.3672 95.7616 8.39169 95.718 8.40749C95.6745 8.42329 95.6282 8.43006 95.5819 8.42739H93.231C93.154 8.42739 93.1168 8.46589 93.1168 8.54289V14.556C93.1168 15.2167 93.2571 15.6849 93.5427 15.9618C93.8271 16.2388 94.2841 16.3766 94.9138 16.3766H95.4664C95.5744 16.3766 95.6589 16.4077 95.7197 16.4685C95.7512 16.5025 95.7755 16.5424 95.7912 16.5859C95.807 16.6294 95.814 16.6757 95.8116 16.7219V17.9203C95.8116 18.1364 95.6962 18.2581 95.4664 18.2891L94.5213 18.3127C93.3391 18.3127 92.4549 18.1053 91.8724 17.6905C91.2875 17.2757 90.9969 16.5008 90.9969 15.3633V8.54289C90.9969 8.46589 90.9584 8.42739 90.8802 8.42739H89.6135C89.5672 8.43013 89.5209 8.4234 89.4773 8.40759C89.4337 8.39179 89.3939 8.36726 89.3601 8.33549C89.3282 8.30183 89.3036 8.26197 89.2878 8.21838C89.272 8.1748 89.2653 8.12843 89.2682 8.08215V6.95329C89.2682 6.84649 89.298 6.76204 89.3601 6.70119C89.3939 6.66943 89.4337 6.64489 89.4773 6.62909C89.5209 6.61329 89.5672 6.60655 89.6135 6.60929H90.8802C90.9572 6.60929 90.9969 6.57079 90.9969 6.49379V3.91318C90.9969 3.80514 91.0267 3.72193 91.0888 3.65984C91.1223 3.62805 91.1619 3.60349 91.2053 3.58768C91.2487 3.57187 91.2948 3.56515 91.3409 3.56794H92.769C92.8771 3.56794 92.9603 3.59774 93.0236 3.65984C93.0845 3.72193 93.1155 3.80514 93.1155 3.91318V6.49379C93.1155 6.57079 93.1528 6.60929 93.2298 6.60929H95.5807C95.6875 6.60929 95.7719 6.63909 95.834 6.70119C95.8961 6.76204 95.9259 6.84649 95.9259 6.95329V8.08215C95.9293 8.12836 95.9229 8.17477 95.9073 8.21839C95.8917 8.26202 95.8672 8.3019 95.8352 8.33549ZM106.549 15.1782C106.626 15.0404 106.71 14.9708 106.802 14.9708C106.879 14.9708 106.948 14.9944 107.008 15.0404L107.955 15.6166C108.078 15.6936 108.138 15.7942 108.138 15.9159L108.093 16.0997C107.684 16.8459 107.073 17.4612 106.329 17.8743C105.57 18.3053 104.682 18.5201 103.668 18.5201C102.577 18.5201 101.656 18.2792 100.902 17.7948C100.151 17.3105 99.582 16.6163 99.1982 15.7085C98.8133 14.7721 98.622 13.6731 98.622 12.415C98.622 11.2936 98.7065 10.4417 98.8754 9.85679C99.1523 8.79623 99.7037 7.96045 100.533 7.34572C101.363 6.73223 102.37 6.42549 103.552 6.42549C105.011 6.42549 106.124 6.8055 106.893 7.56553C107.66 8.32556 108.16 9.42834 108.389 10.8714C108.466 11.4402 108.52 12.1319 108.552 12.9453C108.552 13.1763 108.435 13.2906 108.206 13.2906H100.927C100.85 13.2906 100.81 13.3278 100.81 13.4061C100.841 13.9897 100.895 14.4045 100.973 14.6492C101.141 15.2639 101.48 15.7482 101.986 16.1009C102.493 16.4549 103.121 16.6312 103.875 16.6312C105.119 16.6151 106.011 16.1307 106.549 15.1782ZM101.907 8.81982C101.483 9.14271 101.196 9.58855 101.042 10.1561C100.922 10.5762 100.852 11.0095 100.836 11.4464C100.836 11.5234 100.874 11.5619 100.951 11.5619H106.181C106.258 11.5619 106.297 11.5234 106.297 11.4464C106.266 10.9397 106.22 10.5634 106.159 10.3175C106.025 9.74983 105.705 9.24323 105.25 8.87819C104.797 8.51681 104.232 8.33549 103.556 8.33549C102.88 8.33549 102.328 8.49694 101.907 8.81982ZM120.14 7.54069C120.878 8.27092 121.246 9.25696 121.246 10.5013V17.9886C121.249 18.0349 121.243 18.0812 121.227 18.1248C121.211 18.1684 121.186 18.2083 121.155 18.2419C121.121 18.2737 121.081 18.2983 121.038 18.3141C120.995 18.3299 120.949 18.3366 120.902 18.3338H119.381C119.335 18.3366 119.289 18.3298 119.245 18.314C119.201 18.2982 119.162 18.2737 119.128 18.2419C119.096 18.2083 119.071 18.1684 119.056 18.1248C119.04 18.0812 119.033 18.0349 119.036 17.9886V10.9397C119.036 10.1722 118.812 9.55005 118.368 9.07317C117.922 8.59753 117.331 8.35909 116.593 8.35909C115.932 8.35909 115.377 8.55531 114.923 8.94774C114.468 9.34017 114.205 9.86548 114.127 10.5262V17.9911C114.13 18.0373 114.123 18.0837 114.107 18.1273C114.091 18.1709 114.067 18.2107 114.035 18.2444C114.001 18.2762 113.962 18.3008 113.918 18.3166C113.875 18.3324 113.829 18.3391 113.783 18.3363H112.262C112.215 18.3392 112.169 18.3325 112.125 18.3167C112.082 18.3009 112.042 18.2763 112.008 18.2444C111.976 18.2107 111.952 18.1709 111.936 18.1273C111.92 18.0837 111.913 18.0373 111.916 17.9911V6.95329C111.916 6.84649 111.946 6.76204 112.008 6.70119C112.042 6.6693 112.082 6.64469 112.125 6.62888C112.169 6.61307 112.215 6.6064 112.262 6.60929H113.783C113.89 6.60929 113.974 6.63909 114.035 6.70119C114.097 6.76204 114.127 6.84649 114.127 6.95329V7.59906C114.127 7.64501 114.143 7.67606 114.173 7.69096C114.204 7.70711 114.226 7.69965 114.244 7.66737C114.889 6.85394 115.857 6.44785 117.146 6.44785C118.406 6.44785 119.404 6.81171 120.14 7.54069ZM132.215 2.29999C132.248 2.26844 132.288 2.24403 132.331 2.22824C132.375 2.21245 132.421 2.20559 132.467 2.20809H133.988C134.034 2.20578 134.081 2.21271 134.124 2.22849C134.168 2.24428 134.207 2.26858 134.241 2.29999C134.304 2.36208 134.333 2.44653 134.333 2.55333V17.9898C134.336 18.0361 134.33 18.0825 134.314 18.1261C134.298 18.1696 134.273 18.2095 134.241 18.2432C134.208 18.2749 134.168 18.2994 134.124 18.3152C134.081 18.331 134.034 18.3377 133.988 18.3351H132.467C132.421 18.3379 132.375 18.3311 132.331 18.3153C132.288 18.2995 132.248 18.275 132.215 18.2432C132.151 18.1823 132.123 18.0979 132.123 17.9898V17.3912C132.123 17.3453 132.105 17.3142 132.077 17.2993C132.046 17.2844 132.014 17.2919 131.985 17.3229C131.646 17.7079 131.25 18.0035 130.798 18.2109C130.346 18.417 129.849 18.5213 129.312 18.5213C128.206 18.5213 127.288 18.2481 126.559 17.7042C125.829 17.159 125.295 16.3866 124.958 15.3881C124.681 14.6206 124.544 13.6383 124.544 12.4399C124.544 11.3185 124.658 10.3896 124.888 9.65188C125.211 8.63851 125.743 7.84744 126.488 7.27866C127.234 6.71112 128.174 6.42673 129.311 6.42673C129.849 6.42673 130.344 6.52608 130.796 6.72602C131.249 6.92472 131.645 7.21781 131.984 7.6003C132.012 7.63135 132.045 7.64253 132.076 7.63508C132.104 7.62763 132.122 7.6003 132.122 7.55436V2.55581C132.123 2.44653 132.151 2.36084 132.215 2.29999ZM132.098 12.4598C132.098 11.1993 131.899 10.2169 131.499 9.51031C131.055 8.72668 130.402 8.33549 129.542 8.33549C128.651 8.33549 127.967 8.70433 127.492 9.442C127 10.2107 126.754 11.2241 126.754 12.4834C126.754 13.6656 126.947 14.6181 127.33 15.3397C127.775 16.1854 128.513 16.6076 129.542 16.6076C130.418 16.6076 131.085 16.1928 131.545 15.3633C131.914 14.6864 132.098 13.719 132.098 12.4598ZM143.733 18.2432C143.701 18.2095 143.677 18.1696 143.661 18.1261C143.645 18.0825 143.638 18.0361 143.641 17.9898V2.55333C143.641 2.44653 143.671 2.36208 143.733 2.29999C143.767 2.26844 143.806 2.24403 143.85 2.22824C143.893 2.21245 143.939 2.20559 143.985 2.20809H145.53C145.714 2.20809 145.853 2.28508 145.945 2.43908L149.815 8.61367C149.86 8.70557 149.906 8.70557 149.952 8.61367L153.847 2.43908C153.888 2.36608 153.949 2.30588 154.022 2.26512C154.095 2.22436 154.178 2.20462 154.262 2.20809H155.804C155.85 2.20578 155.897 2.21271 155.94 2.22849C155.984 2.24428 156.023 2.26858 156.057 2.29999C156.12 2.36208 156.149 2.44653 156.149 2.55333V17.9898C156.152 18.0361 156.146 18.0825 156.13 18.1261C156.114 18.1696 156.089 18.2095 156.057 18.2432C156.024 18.2749 155.984 18.2994 155.94 18.3152C155.897 18.331 155.85 18.3377 155.804 18.3351H154.283C154.237 18.3379 154.191 18.3311 154.147 18.3153C154.104 18.2995 154.064 18.275 154.031 18.2432C153.967 18.1823 153.939 18.0979 153.939 17.9898V6.2864C153.939 6.22431 153.921 6.19078 153.893 6.18208C153.862 6.17463 153.83 6.1945 153.801 6.24045L150.668 11.3545C150.627 11.4276 150.566 11.4879 150.493 11.5286C150.42 11.5694 150.337 11.5891 150.253 11.5855H149.515C149.432 11.5891 149.348 11.5694 149.275 11.5286C149.202 11.4879 149.141 11.4276 149.1 11.3545L145.991 6.24045C145.96 6.1945 145.927 6.17463 145.899 6.18208C145.868 6.19078 145.853 6.22431 145.853 6.2864V17.9898C145.856 18.0361 145.849 18.0824 145.833 18.1259C145.817 18.1694 145.793 18.2093 145.761 18.2432C145.727 18.2748 145.687 18.2993 145.643 18.3151C145.599 18.3309 145.553 18.3377 145.506 18.3351H143.985C143.939 18.3376 143.893 18.3307 143.85 18.3149C143.806 18.2991 143.767 18.2747 143.733 18.2432ZM167.832 15.1782C167.909 15.0404 167.994 14.9708 168.086 14.9708C168.161 14.9705 168.233 14.9949 168.292 15.0404L169.237 15.6166C169.36 15.6936 169.421 15.7942 169.421 15.9159L169.375 16.0997C168.967 16.8456 168.356 17.4608 167.613 17.8743C166.853 18.3053 165.966 18.5201 164.952 18.5201C163.86 18.5201 162.939 18.2792 162.186 17.7948C161.434 17.3105 160.865 16.6163 160.481 15.7085C160.097 14.7721 159.906 13.6731 159.906 12.415C159.906 11.2936 159.989 10.4417 160.158 9.85679C160.435 8.79623 160.988 7.96045 161.817 7.34572C162.647 6.73223 163.654 6.42549 164.835 6.42549C166.295 6.42549 167.408 6.8055 168.177 7.56553C168.943 8.32556 169.444 9.42834 169.673 10.8714C169.76 11.5598 169.814 12.2519 169.835 12.9453C169.835 13.1763 169.719 13.2906 169.49 13.2906H162.21C162.133 13.2906 162.094 13.3278 162.094 13.4061C162.125 13.9897 162.179 14.4045 162.256 14.6492C162.425 15.2639 162.762 15.7482 163.269 16.1009C163.776 16.4549 164.405 16.6312 165.158 16.6312C166.402 16.6151 167.294 16.1307 167.832 15.1782ZM163.188 8.81982C162.766 9.14271 162.478 9.58855 162.325 10.1561C162.204 10.5761 162.134 11.0094 162.118 11.4464C162.118 11.5234 162.155 11.5619 162.233 11.5619H167.463C167.54 11.5619 167.58 11.5234 167.58 11.4464C167.548 10.9397 167.503 10.5634 167.442 10.3175C167.307 9.74993 166.986 9.24349 166.531 8.87819C166.079 8.51681 165.514 8.33549 164.837 8.33549C164.161 8.33549 163.611 8.49694 163.188 8.81982ZM181.424 7.54069C182.162 8.27092 182.53 9.25696 182.53 10.5013V17.9886C182.533 18.0349 182.527 18.0812 182.511 18.1248C182.495 18.1684 182.47 18.2083 182.439 18.2419C182.405 18.2737 182.365 18.2983 182.322 18.3141C182.279 18.3299 182.233 18.3366 182.186 18.3338H180.665C180.619 18.3366 180.573 18.3298 180.529 18.314C180.485 18.2982 180.446 18.2737 180.412 18.2419C180.38 18.2083 180.355 18.1684 180.34 18.1248C180.324 18.0812 180.317 18.0349 180.32 17.9886V10.9397C180.32 10.1722 180.096 9.55005 179.652 9.07317C179.206 8.59753 178.615 8.35909 177.877 8.35909C177.216 8.35909 176.661 8.55531 176.207 8.94774C175.752 9.34017 175.489 9.86548 175.411 10.5262V17.9911C175.414 18.0373 175.407 18.0837 175.391 18.1273C175.375 18.1709 175.351 18.2107 175.319 18.2444C175.285 18.2762 175.246 18.3008 175.202 18.3166C175.159 18.3324 175.113 18.3391 175.067 18.3363H173.546C173.499 18.3392 173.453 18.3325 173.409 18.3167C173.366 18.3009 173.326 18.2763 173.292 18.2444C173.26 18.2107 173.236 18.1709 173.22 18.1273C173.204 18.0837 173.197 18.0373 173.2 17.9911V6.95329C173.2 6.84649 173.23 6.76204 173.292 6.70119C173.326 6.6693 173.366 6.64469 173.409 6.62888C173.453 6.61307 173.499 6.6064 173.546 6.60929H175.067C175.174 6.60929 175.258 6.63909 175.319 6.70119C175.381 6.76204 175.411 6.84649 175.411 6.95329V7.59906C175.411 7.64501 175.427 7.67606 175.457 7.69096C175.488 7.70711 175.51 7.69965 175.528 7.66737C176.173 6.85394 177.141 6.44785 178.43 6.44785C179.689 6.44785 180.688 6.81171 181.424 7.54069ZM191.953 8.33549C191.919 8.36738 191.879 8.39199 191.835 8.4078C191.792 8.42361 191.745 8.43028 191.699 8.42739H189.35C189.273 8.42739 189.233 8.46589 189.233 8.54289V14.556C189.233 15.2167 189.376 15.6849 189.66 15.9618C189.944 16.2388 190.4 16.3766 191.031 16.3766H191.584C191.63 16.3743 191.676 16.3813 191.72 16.397C191.763 16.4128 191.803 16.4371 191.837 16.4685C191.899 16.5306 191.929 16.6151 191.929 16.7219V17.9203C191.929 18.1364 191.813 18.2581 191.584 18.2891L190.639 18.3127C189.456 18.3127 188.573 18.1053 187.989 17.6905C187.405 17.2757 187.113 16.5008 187.113 15.3633V8.54289C187.113 8.46589 187.076 8.42739 186.999 8.42739H185.731C185.684 8.43028 185.638 8.42361 185.595 8.4078C185.551 8.39199 185.511 8.36738 185.477 8.33549C185.446 8.30183 185.421 8.26197 185.405 8.21838C185.389 8.1748 185.383 8.12843 185.386 8.08215V6.95329C185.386 6.84649 185.415 6.76204 185.477 6.70119C185.511 6.6693 185.551 6.64469 185.595 6.62888C185.638 6.61307 185.684 6.6064 185.731 6.60929H186.999C187.076 6.60929 187.113 6.57079 187.113 6.49379V3.91318C187.113 3.80514 187.144 3.72193 187.205 3.65984C187.239 3.62804 187.279 3.60349 187.323 3.58769C187.366 3.5719 187.413 3.56517 187.459 3.56794H188.888C188.994 3.56794 189.079 3.59774 189.14 3.65984C189.202 3.72193 189.232 3.80514 189.232 3.91318V6.49379C189.232 6.57079 189.27 6.60929 189.348 6.60929H191.698C191.806 6.60929 191.89 6.63909 191.951 6.70119C191.983 6.73483 192.007 6.77451 192.023 6.81783C192.039 6.86116 192.046 6.90724 192.043 6.95329V8.08215C192.047 8.12836 192.04 8.17477 192.025 8.21839C192.009 8.26202 191.984 8.3019 191.953 8.33549ZM196.894 17.6558C196.057 17.0795 195.471 16.2773 195.133 15.2478C194.856 14.4194 194.718 13.4818 194.718 12.4374C194.718 11.347 194.847 10.4256 195.108 9.67175C195.445 8.65838 196.037 7.86358 196.883 7.28735C197.729 6.71112 198.733 6.42425 199.902 6.42425C201.008 6.42425 201.971 6.71112 202.793 7.28735C203.614 7.86358 204.202 8.65093 204.555 9.64815C204.832 10.4318 204.97 11.3532 204.97 12.4138C204.97 13.488 204.832 14.4331 204.555 15.2465C204.217 16.276 203.634 17.0795 202.805 17.6545C201.976 18.2307 201 18.5176 199.878 18.5176C198.726 18.5189 197.731 18.232 196.894 17.6558ZM201.49 16.0885C201.951 15.7433 202.281 15.2552 202.482 14.6243C202.65 14.0407 202.735 13.3191 202.735 12.4598C202.735 11.6004 202.658 10.8851 202.504 10.3163C202.305 9.68665 201.974 9.19984 201.514 8.85336C201.053 8.50687 200.492 8.33425 199.831 8.33425C199.201 8.33425 198.657 8.50811 198.197 8.85336C197.736 9.1986 197.406 9.68665 197.206 10.3163C197.037 10.854 196.952 11.5681 196.952 12.4598C196.952 13.3502 197.037 14.073 197.206 14.6243C197.389 15.2552 197.716 15.742 198.184 16.0885C198.652 16.435 199.218 16.6064 199.877 16.6064C200.457 16.6181 201.025 16.4359 201.49 16.0885ZM214.808 6.74589C214.977 6.83779 215.039 6.98434 214.992 7.18428L214.669 8.68198C214.653 8.83597 214.577 8.91297 214.438 8.91297C214.376 8.9152 214.314 8.90723 214.254 8.88937C214.001 8.80897 213.736 8.76997 213.471 8.77388C213.317 8.77388 213.202 8.78257 213.125 8.79747C212.402 8.82852 211.808 9.07814 211.339 9.54756C210.871 10.0158 210.637 10.6268 210.637 11.3793V17.9911C210.639 18.0373 210.633 18.0837 210.617 18.1273C210.601 18.1709 210.577 18.2107 210.545 18.2444C210.511 18.2762 210.472 18.3008 210.428 18.3166C210.385 18.3324 210.339 18.3391 210.293 18.3363H208.771C208.725 18.3392 208.679 18.3325 208.635 18.3167C208.591 18.3009 208.552 18.2763 208.518 18.2444C208.486 18.2107 208.461 18.1709 208.446 18.1273C208.43 18.0837 208.423 18.0373 208.426 17.9911V6.95329C208.426 6.84649 208.456 6.76204 208.518 6.70119C208.552 6.6693 208.591 6.64469 208.635 6.62888C208.679 6.61307 208.725 6.6064 208.771 6.60929H210.293C210.399 6.60929 210.484 6.63909 210.545 6.70119C210.607 6.76204 210.637 6.84649 210.637 6.95329V8.01385C210.637 8.07594 210.649 8.11071 210.671 8.11817C210.694 8.12562 210.721 8.10575 210.752 8.0598C211.444 7.01538 212.38 6.49379 213.562 6.49379C214.024 6.49379 214.439 6.577 214.808 6.74589Z" fill="#F8F4F1"/>
<path d="M29.6104 14.3139C29.479 14.3139 29.3491 14.2864 29.2291 14.2331L21.2339 10.6528C21.07 10.5791 20.9308 10.4596 20.8332 10.3087C20.7355 10.1578 20.6836 9.98188 20.6836 9.80213C20.6836 9.62239 20.7355 9.44647 20.8332 9.29555C20.9308 9.14463 21.07 9.02513 21.2339 8.95145L29.2291 5.38355C29.4548 5.28336 29.711 5.27663 29.9416 5.36484C30.1722 5.45304 30.3586 5.629 30.4598 5.85422C30.5599 6.08006 30.5665 6.33637 30.478 6.56702C30.3896 6.79768 30.2133 6.9839 29.9879 7.08491L23.8965 9.80337L29.9891 12.5318C30.184 12.6186 30.3431 12.7697 30.4398 12.9598C30.5366 13.1499 30.5653 13.3674 30.5209 13.5761C30.4766 13.7847 30.3619 13.9718 30.1962 14.1061C30.0305 14.2404 29.8237 14.3137 29.6104 14.3139Z" fill="#F8F4F1"/>
<path d="M18.7141 27.3026C9.92408 27.3026 2.23937 21.369 0.0300734 12.8721C-0.0321766 12.6331 0.0030472 12.3792 0.127996 12.1662C0.252945 11.9532 0.457384 11.7986 0.696339 11.7364C0.935294 11.6741 1.18919 11.7093 1.40217 11.8343C1.61516 11.9592 1.76978 12.1637 1.83203 12.4026C2.80664 16.1375 4.99271 19.4436 8.04773 21.8028C11.1028 24.1621 14.8541 25.4412 18.7141 25.4398C18.9611 25.4398 19.198 25.538 19.3727 25.7126C19.5473 25.8873 19.6455 26.1242 19.6455 26.3712C19.6455 26.6183 19.5473 26.8552 19.3727 27.0298C19.198 27.2045 18.9611 27.3026 18.7141 27.3026Z" fill="#F8F4F1"/>
<path d="M15.5056 19.5682C15.2586 19.5682 15.0217 19.4701 14.847 19.2954C14.6723 19.1207 14.5742 18.8838 14.5742 18.6368V0.931406C14.5742 0.684382 14.6723 0.447475 14.847 0.272802C15.0217 0.09813 15.2586 0 15.5056 0C15.7526 0 15.9896 0.09813 16.1642 0.272802C16.3389 0.447475 16.437 0.684382 16.437 0.931406V18.6368C16.437 18.8838 16.3389 19.1207 16.1642 19.2954C15.9896 19.4701 15.7526 19.5682 15.5056 19.5682Z" fill="#F8F4F1"/>
<path d="M50.6573 30C50.535 30.0003 50.4138 29.9763 50.3008 29.9294C50.1878 29.8825 50.0853 29.8136 49.9991 29.7268L45.9345 25.6609L41.8698 29.7255C41.7833 29.812 41.6806 29.8807 41.5675 29.9275C41.4545 29.9743 41.3334 29.9984 41.211 29.9984C41.0886 29.9984 40.9675 29.9743 40.8545 29.9275C40.7414 29.8807 40.6387 29.812 40.5522 29.7255C40.4657 29.639 40.397 29.5363 40.3502 29.4232C40.3034 29.3102 40.2793 29.189 40.2793 29.0667C40.2793 28.9443 40.3034 28.8232 40.3502 28.7101C40.397 28.5971 40.4657 28.4944 40.5522 28.4079L45.2763 23.6838C45.3627 23.5973 45.4653 23.5286 45.5782 23.4818C45.6911 23.435 45.8122 23.4109 45.9345 23.4109C46.0567 23.4109 46.1778 23.435 46.2907 23.4818C46.4037 23.5286 46.5063 23.5973 46.5927 23.6838L51.3168 28.4091C51.4473 28.5394 51.5363 28.7055 51.5724 28.8864C51.6085 29.0673 51.59 29.2548 51.5194 29.4252C51.4488 29.5956 51.3291 29.7412 51.1756 29.8435C51.0222 29.9458 50.8418 30.0003 50.6573 30Z" fill="#F8F4F1"/>
<path d="M60.1053 29.9999C59.983 30.0001 59.8618 29.976 59.7489 29.9291C59.6359 29.8822 59.5333 29.8134 59.4471 29.7267L55.3824 25.6608L51.319 29.7255C51.2325 29.812 51.1298 29.8806 51.0168 29.9274C50.9037 29.9743 50.7826 29.9984 50.6602 29.9984C50.5379 29.9984 50.4167 29.9743 50.3037 29.9274C50.1906 29.8806 50.0879 29.812 50.0014 29.7255C49.9149 29.639 49.8463 29.5362 49.7994 29.4232C49.7526 29.3102 49.7285 29.189 49.7285 29.0667C49.7285 28.9443 49.7526 28.8231 49.7994 28.7101C49.8463 28.5971 49.9149 28.4944 50.0014 28.4078L54.7243 23.6838C54.9024 23.5156 55.1381 23.422 55.3831 23.422C55.628 23.422 55.8637 23.5156 56.0419 23.6838L60.766 28.4091C60.8966 28.5394 60.9856 28.7056 61.0217 28.8867C61.0577 29.0677 61.0392 29.2553 60.9684 29.4258C60.8976 29.5962 60.7778 29.7418 60.6241 29.844C60.4704 29.9462 60.2899 30.0005 60.1053 29.9999Z" fill="#F8F4F1"/>
<path d="M69.5538 30C69.4313 30.0003 69.3099 29.9763 69.1967 29.9295C69.0835 29.8826 68.9808 29.8137 68.8944 29.7268L64.8309 25.6609L60.7663 29.7255C60.6798 29.8121 60.5771 29.8807 60.464 29.9275C60.351 29.9743 60.2298 29.9984 60.1075 29.9984C59.9851 29.9984 59.864 29.9743 59.7509 29.9275C59.6379 29.8807 59.5352 29.8121 59.4487 29.7255C59.3622 29.639 59.2935 29.5363 59.2467 29.4233C59.1999 29.3102 59.1758 29.1891 59.1758 29.0667C59.1758 28.9444 59.1999 28.8232 59.2467 28.7102C59.2935 28.5971 59.3622 28.4944 59.4487 28.4079L64.1728 23.6838C64.3474 23.5094 64.5841 23.4114 64.8309 23.4114C65.0778 23.4114 65.3145 23.5094 65.4891 23.6838L70.212 28.4092C70.3425 28.5394 70.4315 28.7053 70.4676 28.8861C70.5037 29.0669 70.4854 29.2543 70.4149 29.4247C70.3444 29.595 70.2249 29.7406 70.0717 29.843C69.9184 29.9455 69.7381 30.0001 69.5538 30Z" fill="#F8F4F1"/>
<path d="M78.9979 29.9999C78.8757 30.0001 78.7548 29.976 78.642 29.9291C78.5293 29.8822 78.4269 29.8134 78.3409 29.7267L74.2763 25.6608L70.2116 29.7255C70.1251 29.812 70.0224 29.8806 69.9093 29.9274C69.7963 29.9743 69.6752 29.9984 69.5528 29.9984C69.4304 29.9984 69.3093 29.9743 69.1962 29.9274C69.0832 29.8806 68.9805 29.812 68.894 29.7255C68.8075 29.639 68.7388 29.5362 68.692 29.4232C68.6452 29.3102 68.6211 29.189 68.6211 29.0667C68.6211 28.9443 68.6452 28.8231 68.692 28.7101C68.7388 28.5971 68.8075 28.4944 68.894 28.4078L73.6168 23.6838C73.795 23.5156 74.0307 23.422 74.2756 23.422C74.5206 23.422 74.7563 23.5156 74.9345 23.6838L79.6598 28.4091C79.7905 28.5395 79.8796 28.7058 79.9156 28.887C79.9516 29.0681 79.9329 29.2558 79.862 29.4263C79.791 29.5968 79.671 29.7424 79.5171 29.8445C79.3633 29.9467 79.1825 30.0007 78.9979 29.9999Z" fill="#F8F4F1"/>
<path d="M88.4451 29.9999C88.3228 30.0001 88.2017 29.976 88.0887 29.9291C87.9757 29.8822 87.8732 29.8134 87.7869 29.7267L83.721 25.6608L79.6589 29.7255C79.5724 29.812 79.4696 29.8806 79.3566 29.9274C79.2436 29.9743 79.1224 29.9984 79.0001 29.9984C78.8777 29.9984 78.7565 29.9743 78.6435 29.9274C78.5305 29.8806 78.4278 29.812 78.3412 29.7255C78.2547 29.639 78.1861 29.5362 78.1393 29.4232C78.0925 29.3102 78.0684 29.189 78.0684 29.0667C78.0684 28.9443 78.0925 28.8231 78.1393 28.7101C78.1861 28.5971 78.2547 28.4944 78.3412 28.4078L83.0641 23.6838C83.2423 23.5156 83.478 23.422 83.7229 23.422C83.9679 23.422 84.2036 23.5156 84.3817 23.6838L89.1058 28.4091C89.2365 28.5394 89.3255 28.7056 89.3615 28.8867C89.3976 29.0677 89.379 29.2553 89.3082 29.4258C89.2374 29.5962 89.1176 29.7418 88.9639 29.844C88.8103 29.9462 88.6297 30.0005 88.4451 29.9999Z" fill="#F8F4F1"/>
<path d="M97.8904 29.9999C97.7681 30.0002 97.6469 29.9762 97.5339 29.9293C97.421 29.8824 97.3184 29.8136 97.2323 29.7267L93.1676 25.6608L89.1042 29.7255C89.0177 29.812 88.915 29.8806 88.8019 29.9274C88.6889 29.9743 88.5677 29.9984 88.4454 29.9984C88.323 29.9984 88.2019 29.9743 88.0888 29.9274C87.9758 29.8806 87.8731 29.812 87.7866 29.7255C87.7 29.639 87.6314 29.5362 87.5846 29.4232C87.5378 29.3102 87.5137 29.189 87.5137 29.0667C87.5137 28.9443 87.5378 28.8231 87.5846 28.7101C87.6314 28.5971 87.7 28.4944 87.7866 28.4078L92.5094 23.6838C92.6876 23.5156 92.9233 23.422 93.1682 23.422C93.4132 23.422 93.6489 23.5156 93.827 23.6838L98.5511 28.4091C98.6818 28.5394 98.7708 28.7056 98.8068 28.8867C98.8429 29.0677 98.8243 29.2553 98.7535 29.4258C98.6827 29.5962 98.5629 29.7418 98.4093 29.844C98.2556 29.9462 98.075 30.0005 97.8904 29.9999Z" fill="#F8F4F1"/>
<path d="M107.338 29.9999C107.215 30.0001 107.094 29.976 106.981 29.9291C106.868 29.8822 106.766 29.8134 106.68 29.7267L102.615 25.6608L98.5515 29.7255C98.4649 29.812 98.3622 29.8806 98.2492 29.9274C98.1361 29.9743 98.015 29.9984 97.8926 29.9984C97.7703 29.9984 97.6491 29.9743 97.5361 29.9274C97.4231 29.8806 97.3203 29.812 97.2338 29.7255C97.1473 29.639 97.0787 29.5362 97.0319 29.4232C96.985 29.3102 96.9609 29.189 96.9609 29.0667C96.9609 28.9443 96.985 28.8231 97.0319 28.7101C97.0787 28.5971 97.1473 28.4944 97.2338 28.4078L101.957 23.6838C102.135 23.5156 102.371 23.422 102.615 23.422C102.86 23.422 103.096 23.5156 103.274 23.6838L107.998 28.4091C108.129 28.5394 108.218 28.7056 108.254 28.8867C108.29 29.0677 108.272 29.2553 108.201 29.4258C108.13 29.5962 108.01 29.7418 107.857 29.844C107.703 29.9462 107.522 30.0005 107.338 29.9999Z" fill="#F8F4F1"/>
<path d="M116.782 30C116.66 30.0003 116.538 29.9763 116.425 29.9295C116.312 29.8826 116.209 29.8137 116.123 29.7268L112.059 25.6609L107.995 29.7255C107.908 29.8121 107.806 29.8807 107.693 29.9275C107.58 29.9743 107.458 29.9984 107.336 29.9984C107.214 29.9984 107.092 29.9743 106.979 29.9275C106.866 29.8807 106.764 29.8121 106.677 29.7255C106.591 29.639 106.522 29.5363 106.475 29.4233C106.428 29.3102 106.404 29.1891 106.404 29.0667C106.404 28.9444 106.428 28.8232 106.475 28.7102C106.522 28.5971 106.591 28.4944 106.677 28.4079L111.401 23.6838C111.576 23.5094 111.813 23.4114 112.059 23.4114C112.306 23.4114 112.543 23.5094 112.718 23.6838L117.441 28.4092C117.571 28.5394 117.66 28.7053 117.696 28.8861C117.732 29.0669 117.714 29.2543 117.643 29.4247C117.573 29.595 117.453 29.7406 117.3 29.843C117.147 29.9455 116.967 30.0001 116.782 30Z" fill="#F8F4F1"/>
<path d="M126.228 30C126.106 30.0001 125.985 29.976 125.873 29.9291C125.76 29.8822 125.657 29.8134 125.571 29.7268L121.507 25.6609L117.442 29.7255C117.356 29.812 117.253 29.8807 117.14 29.9275C117.027 29.9743 116.906 29.9984 116.783 29.9984C116.661 29.9984 116.54 29.9743 116.427 29.9275C116.314 29.8807 116.211 29.812 116.124 29.7255C116.038 29.639 115.969 29.5363 115.922 29.4232C115.876 29.3102 115.852 29.189 115.852 29.0667C115.852 28.9443 115.876 28.8232 115.922 28.7101C115.969 28.5971 116.038 28.4944 116.124 28.4079L120.849 23.6838C120.935 23.5973 121.038 23.5286 121.15 23.4818C121.263 23.435 121.384 23.4109 121.507 23.4109C121.629 23.4109 121.75 23.435 121.863 23.4818C121.976 23.5286 122.079 23.5973 122.165 23.6838L126.889 28.4091C127.02 28.5395 127.109 28.7057 127.145 28.8867C127.181 29.0677 127.162 29.2553 127.091 29.4258C127.021 29.5962 126.901 29.7418 126.747 29.844C126.593 29.9463 126.413 30.0005 126.228 30Z" fill="#F8F4F1"/>
<path d="M135.678 30C135.555 30.0002 135.434 29.9761 135.321 29.9292C135.208 29.8823 135.106 29.8135 135.019 29.7268L130.955 25.6609L126.891 29.7255C126.717 29.9003 126.48 29.9984 126.232 29.9984C125.985 29.9984 125.748 29.9003 125.574 29.7255C125.399 29.5508 125.301 29.3138 125.301 29.0667C125.301 28.8196 125.399 28.5826 125.574 28.4079L130.297 23.6838C130.471 23.5094 130.708 23.4114 130.955 23.4114C131.202 23.4114 131.438 23.5094 131.613 23.6838L136.337 28.4092C136.468 28.5394 136.557 28.7055 136.593 28.8864C136.629 29.0673 136.61 29.2549 136.54 29.4253C136.469 29.5957 136.349 29.7412 136.196 29.8436C136.042 29.9459 135.862 30.0003 135.678 30Z" fill="#F8F4F1"/>
</g>
<defs>
<clipPath id="clip0_4204_12249">
<rect width="215.007" height="30" fill="white"/>
</clipPath>
</defs>
</svg>
