<svg width="155" height="37" viewBox="0 0 155 37" fill="none" xmlns="http://www.w3.org/2000/svg">
<path fill-rule="evenodd" clip-rule="evenodd" d="M0 18.1088L8.93543 0.14372V0.395231V0.14372H11.4465L19.534 16.0607H22.3059L18.4252 8.51543H26.0888L29.9043 16.0607H32.6436L24.5561 0H27.0998L36.3613 17.965L35.1221 20.4083H18.8166L17.4795 23.103H25.2409L21.1646 31.331H13.5662L12.2944 33.8461H28.4042L27.1324 36.3612H9.16371L7.72882 33.5946L15.8163 17.2824L14.4467 14.5876L10.6312 22.3485L6.91354 14.7673L10.6312 7.32973L9.26154 4.59905L1.27183 20.7317L0 18.1088ZM2.6741 23.3905L5.9352 17.1746L9.65285 24.684L6.58744 30.8999L2.6741 23.3905ZM33.8176 23.1749H27.7194L23.6756 31.4029H29.8065L33.8176 23.1749ZM17.1534 5.92846H24.7844L21.7841 0H14.2184L17.1534 5.92846Z" fill="#F8F4F1"/>
<path d="M56.5373 11.1305V26.6806H53.0893V11.1305H56.5373ZM62.3067 17.1026V19.6943H56.357V17.1026H62.3067ZM65.5068 11.1305V26.6806H62.0588V11.1305H65.5068ZM74.3277 15.2546C75.2592 15.2546 76.048 15.3824 76.694 15.6378C77.3401 15.8782 77.8284 16.2988 78.1589 16.8998C78.5045 17.4858 78.6772 18.2971 78.6772 19.3337V26.6806H76.0179L75.5447 24.2692L75.3193 23.9312V19.3112C75.3193 18.7854 75.1916 18.4022 74.9362 18.1618C74.6958 17.9215 74.2301 17.8013 73.5389 17.8013C72.968 17.8013 72.2544 17.8238 71.398 17.8689C70.5416 17.8989 69.6627 17.944 68.7612 18.0041L68.4457 15.7955C68.9866 15.6904 69.6101 15.6002 70.3162 15.5251C71.0224 15.45 71.7285 15.3899 72.4347 15.3448C73.1408 15.2847 73.7718 15.2546 74.3277 15.2546ZM77.3025 19.8295L77.28 21.7001L72.322 21.7226C71.9163 21.7226 71.6233 21.8203 71.4431 22.0156C71.2778 22.2109 71.1952 22.4738 71.1952 22.8043V23.3452C71.1952 23.7208 71.3003 24.0138 71.5107 24.2241C71.721 24.4195 72.059 24.5171 72.5248 24.5171C72.9154 24.5171 73.3361 24.4345 73.7868 24.2692C74.2526 24.1039 74.7108 23.8711 75.1616 23.5706C75.6123 23.2701 76.0104 22.917 76.356 22.5114V23.9537C76.2208 24.1791 76.0179 24.4645 75.7475 24.8101C75.4921 25.1406 75.1616 25.4711 74.7559 25.8017C74.3502 26.1172 73.877 26.3876 73.3361 26.613C72.7952 26.8384 72.1792 26.951 71.4881 26.951C70.812 26.951 70.2036 26.8308 69.6627 26.5905C69.1218 26.3501 68.6936 25.997 68.3781 25.5312C68.0626 25.0655 67.9048 24.4871 67.9048 23.7959V22.6466C67.9048 21.7602 68.2053 21.069 68.8063 20.5732C69.4073 20.0774 70.2336 19.8295 71.2853 19.8295H77.3025ZM86.4819 15.2546C86.8875 15.2546 87.3307 15.2772 87.8115 15.3223C88.2923 15.3523 88.7731 15.4199 89.2539 15.5251C89.7497 15.6152 90.2004 15.7504 90.606 15.9307L90.2455 18.0266C89.6445 18.0116 89.066 17.9966 88.5102 17.9816C87.9693 17.9665 87.481 17.959 87.0453 17.959C86.3692 17.959 85.8358 18.0492 85.4452 18.2295C85.0546 18.4097 84.7691 18.7328 84.5888 19.1985C84.4235 19.6492 84.3409 20.2803 84.3409 21.0916C84.3409 21.9179 84.4235 22.564 84.5888 23.0297C84.7691 23.4955 85.0546 23.8185 85.4452 23.9988C85.8358 24.1791 86.3692 24.2692 87.0453 24.2692C87.2857 24.2692 87.5937 24.2617 87.9693 24.2467C88.3449 24.2316 88.7505 24.2166 89.1862 24.2016C89.6219 24.1716 90.0501 24.1265 90.4708 24.0664L90.7863 26.1848C90.1854 26.4552 89.5018 26.6506 88.7355 26.7707C87.9693 26.8909 87.2106 26.951 86.4593 26.951C85.0771 26.951 83.9728 26.7632 83.1465 26.3876C82.3352 25.997 81.7492 25.3735 81.3886 24.5171C81.0281 23.6607 80.8478 22.5189 80.8478 21.0916C80.8478 19.6643 81.0281 18.5224 81.3886 17.666C81.7643 16.8097 82.3652 16.1937 83.1916 15.8181C84.0179 15.4425 85.1147 15.2546 86.4819 15.2546ZM103.537 15.5476L100.63 19.4239C100.495 19.6342 100.322 19.837 100.112 20.0324C99.9013 20.2277 99.7285 20.3704 99.5933 20.4606V20.5507C99.7285 20.6258 99.9013 20.7836 100.112 21.024C100.322 21.2644 100.495 21.5047 100.63 21.7451L103.92 26.6806H100.202L96.3931 20.4155L99.8187 15.5476H103.537ZM96.1002 10.9051L96.1227 17.4181C96.1227 17.944 96.0926 18.4548 96.0326 18.9506C95.9725 19.4464 95.8823 19.9347 95.7621 20.4155C95.8673 20.8812 95.9499 21.362 96.01 21.8578C96.0701 22.3386 96.1002 22.7893 96.1002 23.21V26.6806H92.7648V10.9051H96.1002ZM97.6552 19.469V21.4972H95.0635V19.469H97.6552ZM111.235 15.2546C112.167 15.2546 112.956 15.3824 113.602 15.6378C114.248 15.8782 114.736 16.2988 115.067 16.8998C115.412 17.4858 115.585 18.2971 115.585 19.3337V26.6806H112.926L112.452 24.2692L112.227 23.9312V19.3112C112.227 18.7854 112.099 18.4022 111.844 18.1618C111.604 17.9215 111.138 17.8013 110.447 17.8013C109.876 17.8013 109.162 17.8238 108.306 17.8689C107.449 17.8989 106.57 17.944 105.669 18.0041L105.353 15.7955C105.894 15.6904 106.518 15.6002 107.224 15.5251C107.93 15.45 108.636 15.3899 109.342 15.3448C110.049 15.2847 110.68 15.2546 111.235 15.2546ZM114.21 19.8295L114.188 21.7001L109.23 21.7226C108.824 21.7226 108.531 21.8203 108.351 22.0156C108.186 22.2109 108.103 22.4738 108.103 22.8043V23.3452C108.103 23.7208 108.208 24.0138 108.418 24.2241C108.629 24.4195 108.967 24.5171 109.433 24.5171C109.823 24.5171 110.244 24.4345 110.695 24.2692C111.16 24.1039 111.619 23.8711 112.069 23.5706C112.52 23.2701 112.918 22.917 113.264 22.5114V23.9537C113.129 24.1791 112.926 24.4645 112.655 24.8101C112.4 25.1406 112.069 25.4711 111.664 25.8017C111.258 26.1172 110.785 26.3876 110.244 26.613C109.703 26.8384 109.087 26.951 108.396 26.951C107.72 26.951 107.111 26.8308 106.57 26.5905C106.03 26.3501 105.601 25.997 105.286 25.5312C104.97 25.0655 104.813 24.4871 104.813 23.7959V22.6466C104.813 21.7602 105.113 21.069 105.714 20.5732C106.315 20.0774 107.141 19.8295 108.193 19.8295H114.21ZM123.164 15.2546C124.456 15.2546 125.478 15.3748 126.229 15.6152C126.995 15.8556 127.544 16.2312 127.874 16.7421C128.22 17.2529 128.393 17.9365 128.393 18.7929C128.393 19.6192 128.227 20.2953 127.897 20.8211C127.566 21.332 127.01 21.7076 126.229 21.948C125.463 22.1883 124.434 22.3085 123.142 22.3085C121.85 22.3085 120.813 22.1883 120.032 21.948C119.265 21.7076 118.71 21.332 118.364 20.8211C118.033 20.3103 117.868 19.6342 117.868 18.7929C117.868 17.9515 118.033 17.2754 118.364 16.7646C118.71 16.2387 119.273 15.8556 120.054 15.6152C120.836 15.3748 121.872 15.2546 123.164 15.2546ZM123.142 17.3055C122.315 17.3055 121.744 17.4181 121.429 17.6435C121.113 17.8538 120.956 18.237 120.956 18.7929C120.956 19.3488 121.113 19.7394 121.429 19.9648C121.744 20.1901 122.315 20.3028 123.142 20.3028C123.968 20.3028 124.531 20.1901 124.832 19.9648C125.132 19.7394 125.283 19.3488 125.283 18.7929C125.283 18.237 125.132 17.8538 124.832 17.6435C124.531 17.4181 123.968 17.3055 123.142 17.3055ZM129.677 15.5476L129.497 16.9674L126.522 17.3505L125.711 15.5476H129.677ZM119.784 21.6324L121.451 21.9254C121.241 22.0456 121.091 22.2334 121.001 22.4888C120.926 22.7442 120.948 22.9846 121.068 23.21C121.189 23.4354 121.451 23.5706 121.857 23.6157L125.959 24.0889C127.131 24.2091 127.957 24.5396 128.438 25.0805C128.919 25.6064 129.159 26.3801 129.159 27.4018C129.159 28.3633 128.964 29.0995 128.573 29.6103C128.182 30.1362 127.559 30.4968 126.702 30.6921C125.846 30.8874 124.704 30.9851 123.277 30.9851C122.105 30.9851 121.136 30.925 120.37 30.8048C119.619 30.6996 119.018 30.5193 118.567 30.2639C118.131 30.0085 117.823 29.6704 117.643 29.2498C117.478 28.8441 117.395 28.3333 117.395 27.7173C117.395 27.2515 117.478 26.8534 117.643 26.5228C117.808 26.1773 118.086 25.8693 118.477 25.5989C118.882 25.3284 119.446 25.0805 120.167 24.8552L121.812 24.2692L123.007 24.7425L122.105 25.3284C121.729 25.5989 121.421 25.8317 121.181 26.027C120.956 26.2073 120.79 26.3876 120.685 26.5679C120.595 26.7482 120.55 26.9886 120.55 27.2891C120.55 27.6346 120.625 27.8976 120.775 28.0779C120.926 28.2732 121.196 28.4009 121.587 28.461C121.992 28.5361 122.541 28.5737 123.232 28.5737C123.953 28.5737 124.516 28.5361 124.922 28.461C125.328 28.4009 125.606 28.2807 125.756 28.1004C125.921 27.9201 126.004 27.6647 126.004 27.3342C126.004 27.0487 125.944 26.8384 125.824 26.7031C125.718 26.5679 125.531 26.4703 125.26 26.4102C125.005 26.335 124.644 26.2674 124.178 26.2073L120.685 25.8242C120.099 25.7641 119.641 25.6064 119.311 25.351C118.98 25.0955 118.747 24.7875 118.612 24.427C118.492 24.0514 118.462 23.6757 118.522 23.3001C118.582 22.9245 118.717 22.5865 118.927 22.286C119.153 21.9855 119.438 21.7677 119.784 21.6324ZM136.443 15.2546C138.321 15.2546 139.665 15.5777 140.477 16.2237C141.303 16.8547 141.716 17.8013 141.716 19.0633C141.731 20.0849 141.476 20.8512 140.95 21.362C140.424 21.8578 139.515 22.1057 138.223 22.1057H132.003V20.2352H137.299C137.81 20.2352 138.133 20.13 138.268 19.9197C138.418 19.6943 138.493 19.3863 138.493 18.9957C138.478 18.4698 138.321 18.1093 138.02 17.9139C137.735 17.7036 137.246 17.5984 136.555 17.5984C135.939 17.5984 135.459 17.6811 135.113 17.8463C134.767 18.0116 134.527 18.3271 134.392 18.7929C134.257 19.2586 134.189 19.9347 134.189 20.8211C134.189 21.7526 134.272 22.4738 134.437 22.9846C134.602 23.4804 134.88 23.826 135.271 24.0213C135.676 24.2166 136.232 24.3143 136.938 24.3143C137.449 24.3143 138.08 24.2993 138.831 24.2692C139.598 24.2241 140.364 24.1565 141.13 24.0664L141.446 26.1172C141.01 26.3275 140.514 26.4928 139.958 26.613C139.402 26.7332 138.831 26.8158 138.246 26.8609C137.66 26.921 137.096 26.951 136.555 26.951C135.143 26.951 134.001 26.7482 133.13 26.3426C132.273 25.9219 131.65 25.2833 131.259 24.427C130.884 23.5706 130.696 22.4738 130.696 21.1366C130.696 19.6793 130.891 18.5224 131.282 17.666C131.672 16.8097 132.288 16.1937 133.13 15.8181C133.971 15.4425 135.075 15.2546 136.443 15.2546ZM148.127 15.2546C148.668 15.2546 149.253 15.2772 149.885 15.3223C150.516 15.3523 151.132 15.3974 151.732 15.4575C152.333 15.5176 152.867 15.5927 153.333 15.6828L153.107 17.7562C152.386 17.7412 151.657 17.7337 150.921 17.7337C150.2 17.7186 149.494 17.7111 148.803 17.7111C148.217 17.6961 147.766 17.7036 147.451 17.7337C147.135 17.7637 146.91 17.8388 146.774 17.959C146.654 18.0642 146.594 18.2595 146.594 18.545C146.594 18.8755 146.707 19.1009 146.932 19.2211C147.158 19.3262 147.533 19.4464 148.059 19.5816L150.966 20.2803C151.898 20.5207 152.589 20.8812 153.04 21.362C153.49 21.8278 153.716 22.5339 153.716 23.4804C153.716 24.4119 153.543 25.1256 153.197 25.6214C152.852 26.1172 152.303 26.4628 151.552 26.6581C150.801 26.8384 149.832 26.9285 148.645 26.9285C148.179 26.9285 147.488 26.906 146.572 26.8609C145.655 26.8158 144.649 26.7031 143.552 26.5228L143.777 24.4495C144.048 24.4645 144.393 24.4795 144.814 24.4946C145.234 24.4946 145.693 24.4946 146.189 24.4946C146.684 24.4946 147.18 24.4946 147.676 24.4946C148.442 24.4946 149.028 24.4795 149.434 24.4495C149.839 24.4044 150.117 24.3143 150.268 24.1791C150.418 24.0438 150.493 23.841 150.493 23.5706C150.493 23.24 150.365 23.0147 150.11 22.8945C149.854 22.7743 149.449 22.6466 148.893 22.5114L146.076 21.8127C145.37 21.6174 144.821 21.3695 144.431 21.069C144.04 20.7686 143.762 20.4005 143.597 19.9648C143.447 19.5291 143.371 19.0107 143.371 18.4097C143.371 17.6435 143.522 17.035 143.822 16.5843C144.138 16.1185 144.641 15.7805 145.332 15.5702C146.038 15.3598 146.97 15.2546 148.127 15.2546Z" fill="#F8F4F1"/>
</svg>
