<svg width="138" height="40" viewBox="0 0 138 40" fill="none" xmlns="http://www.w3.org/2000/svg">
<g clip-path="url(#clip0_4204_12224)">
<path d="M4.10555 7.39203H0.107422V23.8498H4.10555V7.39203Z" fill="#F8F4F1"/>
<path d="M20.8582 7.53195H19.9102L15.5648 18.8965L11.1242 7.53287H6.24219V23.8508H10.2403V13.6223L13.7841 23.8508H17.2503L20.7494 13.7247V23.8508H24.7465V7.53195H20.8582Z" fill="#F8F4F1"/>
<path d="M57.975 15.5711H54.539H50.0344V18.2676H53.7912C53.2357 19.1343 52.4138 19.797 51.4489 20.1559C50.4841 20.5148 49.4287 20.5505 48.4418 20.2575C47.455 19.9645 46.5902 19.3588 45.9775 18.5315C45.3648 17.7043 45.0375 16.7004 45.0449 15.6709C45.0523 14.6416 45.394 13.6425 46.0186 12.8242C46.6432 12.0059 47.5168 11.4127 48.5078 11.134C49.4987 10.8553 50.5535 10.9062 51.513 11.279C52.4726 11.6517 53.2849 12.3263 53.8279 13.2009H57.5929C56.9698 11.2322 55.6265 9.57126 53.8318 8.55013C52.0369 7.52901 49.9227 7.22294 47.9121 7.69317C45.9014 8.1634 44.1422 9.37524 42.9864 11.0864C41.8305 12.7976 41.3632 14.8819 41.6777 16.9228C41.9923 18.9636 43.0656 20.8106 44.6831 22.0944C46.3004 23.378 48.3428 24.004 50.4018 23.8469C52.4609 23.6899 54.3847 22.7615 55.7888 21.2473C57.1928 19.7331 57.9735 17.7448 57.975 15.6799C57.9759 15.6451 57.975 15.6076 57.975 15.5711Z" fill="#F8F4F1"/>
<path d="M36.7144 7.52734H32.1121L26.1113 23.8443H30.2977L31.3197 20.869H37.4558L38.4796 23.8443H42.7106L36.7144 7.52734ZM32.3269 17.8015L34.3964 11.7603L36.4658 17.7997L32.3269 17.8015Z" fill="#F8F4F1"/>
<path d="M90.6581 20.5117C90.7093 20.5117 90.7596 20.5117 90.8099 20.519V0H60.0332V30.7766H60.2654L75.3475 39.8971L90.5273 30.7766H90.8061V23.9458C90.7558 23.9458 90.7055 23.9531 90.6543 23.9531C90.1983 23.9531 89.7611 23.772 89.4386 23.4495C89.1162 23.1271 88.935 22.6897 88.935 22.2337C88.935 21.7777 89.1162 21.3405 89.4386 21.0179C89.7611 20.6955 90.1983 20.5144 90.6543 20.5144L90.6581 20.5117ZM81.7441 20.4989V23.985H69.3786V20.5025L76.1646 16.0391H69.3769V12.552H81.7422V16.0391L74.8722 20.5043H81.7422L81.7441 20.4989ZM81.7907 11.1077H69.3777V7.6233H81.7907V11.1077Z" fill="#F8F4F1"/>
<path d="M100.408 20.922C100.407 20.3349 100.176 19.7716 99.763 19.3541C99.3503 18.9367 98.7897 18.6987 98.2026 18.6917H94.9121C94.6488 18.6792 94.4004 18.5655 94.219 18.3743C94.0376 18.1829 93.9371 17.929 93.9385 17.6655C93.9399 17.4018 94.0432 17.149 94.2266 16.9596C94.41 16.7704 94.6596 16.6593 94.9231 16.6497H96.9083H100.388V15.4359H94.8838C94.3001 15.4415 93.7418 15.676 93.3292 16.089C92.9168 16.502 92.6828 17.0603 92.6778 17.6441C92.6728 18.2277 92.8971 18.7901 93.3025 19.2101C93.7079 19.6301 94.2619 19.8743 94.8455 19.89H98.1689C98.4334 19.8935 98.6859 20.0008 98.8716 20.189C99.0575 20.3772 99.1616 20.6311 99.1616 20.8955C99.1644 21.1512 99.0683 21.3981 98.8931 21.5844C98.7179 21.7707 98.4772 21.8818 98.2218 21.8946H92.7174V23.1523H98.2218C98.8057 23.1409 99.3617 22.9008 99.7706 22.4837C100.179 22.0667 100.408 21.506 100.408 20.922Z" fill="#F8F4F1"/>
<path d="M116.154 15.4286H114.936V19.3315C114.936 20.0284 114.659 20.6967 114.167 21.1895C113.674 21.6823 113.006 21.9591 112.309 21.9591C111.612 21.9591 110.944 21.6823 110.451 21.1895C109.958 20.6967 109.682 20.0284 109.682 19.3315C109.682 19.305 109.682 19.2794 109.682 19.2529V15.4258H108.479V19.3983C108.494 20.4044 108.905 21.3641 109.622 22.07C110.339 22.7761 111.305 23.1718 112.311 23.1718C113.317 23.1718 114.283 22.7761 115 22.07C115.717 21.3641 116.127 20.4044 116.143 19.3983H116.153V15.4258L116.154 15.4286Z" fill="#F8F4F1"/>
<path d="M128.005 12.4597H126.75V13.668H128.005V12.4597Z" fill="#F8F4F1"/>
<path d="M128.005 15.435H126.75V23.1487H128.005V15.435Z" fill="#F8F4F1"/>
<path d="M133.276 15.4332C132.511 15.4277 131.763 15.6495 131.124 16.0703C130.486 16.4912 129.987 17.0921 129.691 17.7969C129.394 18.5019 129.314 19.2788 129.46 20.0294C129.606 20.7799 129.971 21.4703 130.51 22.0129C131.048 22.5555 131.736 22.9259 132.486 23.0771C133.235 23.2283 134.013 23.1534 134.719 22.8621C135.427 22.5708 136.031 22.076 136.456 21.4406C136.882 20.8053 137.109 20.0579 137.109 19.2933C137.112 18.2732 136.71 17.2935 135.992 16.5697C135.274 15.8459 134.296 15.4371 133.276 15.4332ZM133.276 21.934C132.754 21.9339 132.243 21.7787 131.808 21.4883C131.374 21.1977 131.036 20.7849 130.836 20.3021C130.636 19.8192 130.583 19.2879 130.685 18.7753C130.788 18.2628 131.039 17.792 131.41 17.4225C131.779 17.0531 132.25 16.8015 132.762 16.6996C133.275 16.5976 133.806 16.6501 134.288 16.8501C134.772 17.0502 135.184 17.3888 135.475 17.8235C135.765 18.258 135.919 18.7688 135.919 19.2915C135.919 19.6389 135.852 19.9829 135.718 20.3038C135.586 20.6247 135.39 20.9161 135.144 21.1616C134.899 21.4071 134.606 21.6016 134.285 21.7342C133.964 21.8667 133.62 21.9345 133.272 21.934H133.276Z" fill="#F8F4F1"/>
<path d="M125.307 19.1925V11.4367H124.096V15.9521C124.087 16.0253 124.052 16.0926 123.998 16.1426C123.944 16.1927 123.875 16.2223 123.8 16.2264C123.134 15.712 122.316 15.4333 121.474 15.4338C120.71 15.4304 119.963 15.6537 119.326 16.0753C118.69 16.497 118.192 17.0981 117.899 17.8024C117.604 18.5068 117.525 19.2828 117.671 20.032C117.819 20.7812 118.184 21.47 118.723 22.0111C119.262 22.5521 119.949 22.9212 120.697 23.0713C121.446 23.2216 122.222 23.1462 122.928 22.8549C123.634 22.5634 124.237 22.0692 124.662 21.4347C125.086 20.8001 125.312 20.0538 125.312 19.2903C125.312 19.2565 125.312 19.2236 125.312 19.1906L125.307 19.1925ZM121.454 21.943C120.928 21.9504 120.413 21.8013 119.972 21.5145C119.531 21.2278 119.186 20.8165 118.979 20.3328C118.772 19.8492 118.715 19.315 118.813 18.7983C118.91 18.2817 119.16 17.8058 119.529 17.4314C119.899 17.0569 120.371 16.8007 120.886 16.6953C121.402 16.5901 121.935 16.6402 122.422 16.8398C122.909 17.0392 123.325 17.379 123.619 17.8157C123.911 18.2524 124.068 18.7663 124.068 19.2921C124.07 19.6378 124.005 19.9808 123.875 20.3012C123.745 20.6216 123.554 20.9133 123.31 21.1596C123.068 21.4059 122.779 21.6019 122.461 21.7364C122.142 21.871 121.8 21.9406 121.454 21.943Z" fill="#F8F4F1"/>
<path d="M106.282 16.7841V15.5756H104.017C103.98 15.5681 103.944 15.5539 103.912 15.5335H103.906C103.869 15.5099 103.838 15.4787 103.814 15.4421V15.4375C103.788 15.3953 103.772 15.3468 103.77 15.2969V11.5739H102.561V15.2694C102.56 15.2733 102.56 15.2774 102.561 15.2813C102.561 15.334 102.546 15.3855 102.518 15.4302H102.512V15.4386C102.49 15.4747 102.461 15.5058 102.426 15.5299C102.392 15.5514 102.356 15.5666 102.317 15.5747H101.025V16.7841H102.284C102.358 16.7914 102.427 16.8255 102.477 16.8801C102.528 16.9347 102.557 17.0058 102.558 17.0802C102.558 17.0841 102.558 17.0882 102.558 17.0921V23.2922H103.768V17.0683C103.77 17.0165 103.786 16.9663 103.814 16.9229C103.838 16.8863 103.869 16.8553 103.906 16.8315C103.947 16.8054 103.993 16.7891 104.042 16.7841H106.282Z" fill="#F8F4F1"/>
<path d="M4.08862 7.45972H0V23.816H4.08862V7.45972Z" fill="#F8F4F1"/>
<path d="M20.8464 7.53195H19.8985L15.553 18.8965L11.1116 7.53287H6.23047V23.8508H10.2286V13.6223L13.7724 23.8508H17.2359L20.7348 13.7247V23.8508H24.7312V7.53195H20.8464Z" fill="#F8F4F1"/>
<path d="M57.9652 15.5712H54.5302H50.0247V18.2678H53.7815C53.226 19.1344 52.404 19.7972 51.4391 20.156C50.4743 20.515 49.4189 20.5506 48.432 20.2576C47.4453 19.9647 46.5804 19.359 45.9677 18.5317C45.355 17.7045 45.0277 16.7006 45.0351 15.6711C45.0426 14.6417 45.3844 13.6426 46.009 12.8244C46.6335 12.0061 47.507 11.4129 48.498 11.1342C49.489 10.8555 50.5437 10.9064 51.5032 11.2792C52.4628 11.6519 53.2751 12.3264 53.8181 13.201H57.5831C56.96 11.2324 55.6168 9.57142 53.822 8.55029C52.0271 7.52915 49.9131 7.2231 47.9023 7.69333C45.8916 8.16355 44.1324 9.37539 42.9766 11.0866C41.8207 12.7977 41.3534 14.8821 41.6679 16.923C41.9826 18.9638 43.0558 20.8108 44.6733 22.0945C46.2907 23.3782 48.3332 24.0041 50.3922 23.8471C52.4511 23.6901 54.3749 22.7616 55.779 21.2474C57.183 19.7333 57.9638 17.7449 57.9652 15.68C57.9661 15.6453 57.9652 15.6078 57.9652 15.5712Z" fill="#F8F4F1"/>
<path d="M36.701 7.52737H32.0987L26.0996 23.8444H30.2861L31.3089 20.8691H37.445L38.4687 23.8444H42.7001L36.7028 7.52646L36.701 7.52737ZM32.3134 17.8034L34.3829 11.7622L36.4524 17.8014L32.3134 17.8034Z" fill="#F8F4F1"/>
<path d="M90.6443 20.5117C90.6955 20.5117 90.7467 20.5117 90.7961 20.519V0H60.0195V30.7766H60.2516L75.3338 39.8971L90.5136 30.7766H90.7879V23.9458C90.7376 23.9458 90.6873 23.9531 90.6361 23.9531C90.1801 23.9531 89.7427 23.772 89.4203 23.4495C89.0979 23.1271 88.9168 22.6897 88.9168 22.2337C88.9168 21.7777 89.0979 21.3405 89.4203 21.0179C89.7427 20.6955 90.1801 20.5144 90.6361 20.5144L90.6443 20.5117ZM81.7303 20.4989V23.985H69.3612V20.5025L76.1473 16.0391H69.3612V12.552H81.7267V16.0391L74.8567 20.5043H81.7267L81.7303 20.4989ZM81.777 11.1077H69.3612V7.6233H81.7743L81.777 11.1077Z" fill="#F8F4F1"/>
<path d="M100.397 20.9221C100.397 20.3352 100.165 19.772 99.7525 19.3545C99.3399 18.937 98.7796 18.699 98.1927 18.6917H94.9023C94.639 18.6792 94.3906 18.5655 94.2092 18.3743C94.0277 18.183 93.9273 17.929 93.9286 17.6655C93.9301 17.4018 94.0333 17.1489 94.2167 16.9597C94.4002 16.7704 94.6498 16.6593 94.9132 16.6497H96.8985H100.378V15.4358H94.874C94.2902 15.4415 93.7319 15.676 93.3194 16.089C92.9069 16.502 92.6731 17.0604 92.6681 17.6441C92.663 18.2278 92.8873 18.7902 93.2926 19.2102C93.698 19.6302 94.2521 19.8743 94.8356 19.8901H98.1591C98.4235 19.8934 98.6761 20.0008 98.8619 20.189C99.0476 20.3773 99.1517 20.6311 99.1517 20.8956C99.1547 21.1512 99.0585 21.3982 98.8833 21.5845C98.7081 21.7706 98.4674 21.8818 98.2119 21.8946H92.7075V23.1524H98.2119C98.7958 23.1409 99.3522 22.9008 99.761 22.4838C100.17 22.0668 100.399 21.5061 100.398 20.9221H100.397Z" fill="#F8F4F1"/>
<path d="M116.143 15.4286H114.925V19.3315C114.925 20.0284 114.648 20.6967 114.155 21.1895C113.662 21.6823 112.994 21.9591 112.297 21.9591C111.6 21.9591 110.932 21.6823 110.439 21.1895C109.947 20.6967 109.67 20.0284 109.67 19.3315C109.67 19.305 109.67 19.2794 109.67 19.2529V15.4258H108.467V19.3983C108.482 20.4044 108.893 21.3641 109.61 22.07C110.327 22.7761 111.293 23.1718 112.299 23.1718C113.305 23.1718 114.271 22.7761 114.989 22.07C115.705 21.3641 116.116 20.4044 116.132 19.3983H116.142V15.4258L116.143 15.4286Z" fill="#F8F4F1"/>
<path d="M127.985 12.3664H126.758V13.593H127.985V12.3664Z" fill="#F8F4F1"/>
<path d="M127.991 15.435H126.736V23.1488H127.991V15.435Z" fill="#F8F4F1"/>
<path d="M133.262 15.433C132.497 15.4279 131.748 15.6497 131.11 16.0708C130.471 16.4917 129.973 17.0927 129.677 17.7975C129.381 18.5024 129.3 19.2793 129.446 20.0298C129.592 20.7805 129.958 21.4706 130.496 22.0132C131.035 22.5557 131.723 22.926 132.472 23.077C133.222 23.2281 133.999 23.1533 134.707 22.862C135.413 22.5705 136.017 22.0759 136.443 21.4405C136.868 20.8052 137.095 20.0577 137.095 19.2932C137.097 18.788 136.999 18.2874 136.807 17.82C136.616 17.3526 136.334 16.9274 135.979 16.569C135.622 16.2105 135.199 15.9257 134.733 15.7309C134.267 15.536 133.767 15.4348 133.262 15.433ZM133.262 21.934C132.739 21.934 132.228 21.779 131.793 21.4886C131.359 21.1982 131.021 20.7855 130.821 20.3026C130.621 19.8198 130.568 19.2885 130.67 18.7759C130.772 18.2632 131.023 17.7924 131.393 17.4228C131.763 17.0533 132.233 16.8015 132.747 16.6996C133.259 16.5976 133.79 16.65 134.273 16.85C134.756 17.05 135.168 17.3887 135.459 17.8232C135.749 18.2578 135.904 18.7687 135.904 19.2913C135.904 19.6385 135.836 19.9823 135.703 20.3031C135.571 20.6238 135.375 20.9152 135.129 21.1606C134.884 21.406 134.592 21.6006 134.271 21.7333C133.951 21.866 133.607 21.9342 133.26 21.934H133.262Z" fill="#F8F4F1"/>
<path d="M125.295 19.1926V11.4368H124.085V15.9523C124.075 16.0254 124.041 16.0929 123.987 16.143C123.932 16.1931 123.863 16.2227 123.789 16.2265C123.122 15.712 122.304 15.4333 121.461 15.434C120.698 15.4305 119.951 15.6539 119.314 16.0755C118.677 16.4972 118.18 17.0982 117.887 17.8025C117.592 18.507 117.513 19.2829 117.66 20.0321C117.807 20.7813 118.172 21.4701 118.711 22.0112C119.25 22.5523 119.937 22.9213 120.685 23.0715C121.434 23.2217 122.21 23.1463 122.916 22.855C123.621 22.5636 124.225 22.0693 124.65 21.4348C125.074 20.8003 125.3 20.054 125.3 19.2904C125.295 19.2584 125.295 19.2255 125.295 19.1926ZM121.443 21.9431C120.917 21.9507 120.401 21.8017 119.961 21.5151C119.52 21.2285 119.173 20.8173 118.967 20.3336C118.761 19.85 118.703 19.3158 118.801 18.7991C118.898 18.2823 119.148 17.8064 119.517 17.4319C119.887 17.0573 120.359 16.8011 120.874 16.6956C121.388 16.5902 121.923 16.6404 122.41 16.8398C122.897 17.0392 123.313 17.379 123.607 17.8157C123.899 18.2524 124.056 18.7664 124.056 19.2923C124.058 19.638 123.993 19.9807 123.863 20.3012C123.733 20.6215 123.541 20.9131 123.299 21.1593C123.056 21.4056 122.768 21.6016 122.449 21.7363C122.131 21.8709 121.789 21.9406 121.443 21.9431Z" fill="#F8F4F1"/>
<path d="M106.27 16.7841V15.5756H104.005C103.967 15.5681 103.932 15.5539 103.9 15.5335H103.894C103.858 15.5097 103.826 15.4786 103.803 15.4421V15.4375C103.776 15.3953 103.761 15.3468 103.759 15.2969V11.5739H102.549V15.2694C102.549 15.2733 102.549 15.2774 102.549 15.2813C102.549 15.334 102.534 15.3855 102.506 15.4302H102.501V15.4386C102.478 15.4746 102.449 15.5058 102.414 15.5299C102.381 15.5514 102.344 15.5665 102.305 15.5747H101.014V16.7841H102.272C102.346 16.7914 102.415 16.8255 102.466 16.8801C102.516 16.9347 102.545 17.0058 102.547 17.0802C102.546 17.0841 102.546 17.0882 102.547 17.0921V23.2922H103.756V17.0683C103.758 17.0165 103.774 16.9663 103.803 16.9229C103.826 16.8865 103.857 16.8553 103.894 16.8315C103.935 16.8054 103.982 16.7892 104.03 16.7841H106.27Z" fill="#F8F4F1"/>
</g>
<defs>
<clipPath id="clip0_4204_12224">
<rect width="137.143" height="40" fill="white"/>
</clipPath>
</defs>
</svg>
