<svg width="174" height="30" viewBox="0 0 174 30" fill="none" xmlns="http://www.w3.org/2000/svg">
<path d="M35.3786 3.82129H39.0982V15.3631L49.1369 3.82129H53.7655L44.9338 13.6917L54.1581 26.7748H49.6205L42.3923 16.4471L39.0945 20.1209V26.7748H35.375V3.82129H35.3786Z" fill="#F8F4F1"/>
<path d="M56.2129 3.03384H60.1433V6.80227H56.2129V3.03384ZM56.3329 9.45908H60.0233V26.7718H56.3329V9.45908Z" fill="#F8F4F1"/>
<path d="M64.8006 21.9854V12.8718H62.7754V9.46211H64.8006V4.70822H68.4583V9.46211H72.7523V12.8718H68.4583V21.3626C68.4583 22.9039 69.1855 23.5267 70.4254 23.5267C71.2107 23.5267 71.967 23.3296 72.6942 22.9354V26.1796C71.7561 26.7354 70.818 27.0665 69.3964 27.0665C66.7058 27.0665 64.8006 25.7854 64.8006 21.9854Z" fill="#F8F4F1"/>
<path d="M74.3887 18.2138V18.1468C74.3887 13.2273 77.8973 9.09622 82.704 9.09622C85.6964 9.09622 87.5434 10.3103 89.0851 12.0802L86.7871 14.737C85.6673 13.4599 84.4893 12.573 82.6749 12.573C80.0134 12.573 78.0464 15.0642 78.0464 18.0797V18.1468C78.0464 21.2293 80.0134 23.689 82.824 23.689C84.5474 23.689 85.7873 22.8376 86.9653 21.5565L89.1723 23.9176C87.598 25.8531 85.7545 27.1618 82.6386 27.1618C77.8937 27.1657 74.3887 23.1332 74.3887 18.2138Z" fill="#F8F4F1"/>
<path d="M91.748 2.83606H95.4385V12.1152C96.4966 10.5069 97.9182 9.09968 100.427 9.09968C104.056 9.09968 106.114 11.6895 106.114 15.722V26.7711H102.456V16.9361C102.456 14.2162 101.216 12.7065 99.0381 12.7065C96.8929 12.7065 95.4385 14.2793 95.4385 17.0031V26.775H91.748V2.83606V2.83606Z" fill="#F8F4F1"/>
<path d="M110.193 3.82129H119.69C122.141 3.82129 123.984 4.51111 125.224 5.85528C126.162 6.87228 126.646 8.14946 126.646 9.65919V9.7262C126.646 12.5131 125.195 13.9558 123.621 14.8388C126.13 15.7888 127.824 17.263 127.824 20.4126V20.4796C127.824 24.5792 124.708 26.7748 119.992 26.7748H110.193V3.82129V3.82129ZM122.923 10.3135C122.923 8.47662 121.621 7.39655 119.203 7.39655H113.851V13.4946H118.93C121.348 13.4946 122.923 12.4776 122.923 10.3805V10.3135ZM124.104 19.9829C124.104 18.016 122.683 16.9004 119.749 16.9004H113.851V23.1956H120.021C122.563 23.1956 124.104 22.147 124.104 20.0499V19.9829Z" fill="#F8F4F1"/>
<path d="M129.756 21.788V21.721C129.756 17.9526 132.479 16.1472 136.377 16.1472C138.191 16.1472 139.431 16.4429 140.671 16.8686V16.4429C140.671 13.9516 139.278 12.6705 136.708 12.6705C134.893 12.6705 133.592 13.0962 132.141 13.7545L131.141 10.6404C132.926 9.82053 134.65 9.22925 137.188 9.22925C139.576 9.22925 141.329 9.8836 142.482 11.1647C143.66 12.4419 144.205 14.2472 144.205 16.5099V26.7706H140.638V24.6065C139.551 26.0177 137.886 27.1293 135.435 27.1293C132.446 27.1293 129.756 25.2963 129.756 21.788ZM140.733 20.5424V19.3638C139.795 18.9696 138.555 18.674 137.104 18.674C134.715 18.674 133.355 19.7225 133.355 21.5594V21.6264C133.355 23.2978 134.686 24.2478 136.471 24.2478C138.889 24.2478 140.733 22.7696 140.733 20.5424Z" fill="#F8F4F1"/>
<path d="M148.445 21.9854V12.8718H146.42V9.46211H148.445V4.70822H152.103V9.46211H156.397V12.8718H152.103V21.3626C152.103 22.9039 152.83 23.5267 154.07 23.5267C154.855 23.5267 155.612 23.3296 156.339 22.9354V26.1796C155.401 26.7354 154.463 27.0665 153.041 27.0665C150.35 27.0665 148.445 25.7854 148.445 21.9854Z" fill="#F8F4F1"/>
<path d="M159.33 2.83606H163.02V12.1152C164.078 10.5069 165.5 9.09968 168.009 9.09968C171.637 9.09968 173.695 11.6895 173.695 15.722V26.7711H170.034V16.9361C170.034 14.2162 168.794 12.7065 166.616 12.7065C164.467 12.7065 163.017 14.2793 163.017 17.0031V26.775H159.326V2.83606H159.33Z" fill="#F8F4F1"/>
<path d="M25.9357 30.0001H16.6932L7.89062 15.0328H17.1331L25.9357 30.0001Z" fill="#F8F4F1"/>
<path d="M0.000692368 29.9346H7.89062L7.89063 3.05176e-05H0.000692368L0.000692368 29.9346Z" fill="#F8F4F1"/>
<path d="M24.3288 4.96158L21.0928 0.00271606L17.8569 4.96158C16.7406 6.66841 16.9261 9.00199 18.2895 10.4802C19.8384 12.1594 22.3472 12.1594 23.8925 10.4802C25.2596 8.99805 25.445 6.66841 24.3288 4.96158Z" fill="#F8F4F1"/>
</svg>
