<svg width="155" height="36" viewBox="0 0 155 36" fill="none" xmlns="http://www.w3.org/2000/svg">
<g clip-path="url(#clip0_4204_12279)">
<path d="M29.49 7.46006L17.3862 0.471812C16.2965 -0.157271 14.9539 -0.157271 13.8642 0.471812L1.76081 7.46006C0.671102 8.08916 0 9.2519 0 10.5101V24.4862C0 25.7444 0.671102 26.9071 1.76081 27.5362L13.8646 34.524C14.9543 35.1531 16.2969 35.1531 17.3866 34.524L29.4904 27.5362C30.5801 26.9071 31.2512 25.7444 31.2512 24.4862V10.5101C31.2508 9.2519 30.5794 8.08916 29.49 7.46006Z" fill="#F8F4F1"/>
<path d="M18.8398 20.2818C18.8398 22.1459 17.3598 23.7032 15.4957 23.7308C13.6014 23.7582 12.0514 22.2146 12.0514 20.3136C12.0514 20.3136 12.0514 20.2606 12.0514 20.2327C12.0514 19.4442 11.4243 18.8053 10.6507 18.8053C9.87712 18.8053 9.25 19.4446 9.25 20.2327C9.25 20.2602 9.25 20.3136 9.25 20.3136C9.25 23.7645 12.0471 26.5699 15.4788 26.5518C18.8991 26.5337 21.6412 23.7052 21.6412 20.2845V14.7649H18.8398V20.2818Z" fill="#001A13"/>
<path d="M10.6507 9.80873C9.87712 9.80873 9.25 10.4359 9.25 11.2094C9.25 11.983 9.87712 12.6102 10.6507 12.6102H14.0447V19.9597C14.0447 20.7242 14.644 21.3718 15.4085 21.3915C16.199 21.4119 16.8461 20.7773 16.8461 19.9911V12.6098H21.6424V9.80835H10.6507V9.80873Z" fill="#001A13"/>
<path d="M44.8832 19.183C44.3073 19.183 43.8624 19.0259 43.548 18.7118C43.2339 18.3845 43.0767 17.9329 43.0767 17.357V8.10922H39.9944C39.5099 8.10922 39.1368 7.98486 38.875 7.73616C38.6264 7.47436 38.502 7.10786 38.502 6.63664C38.502 6.15233 38.6264 5.78582 38.875 5.53712C39.1368 5.28841 39.5099 5.16406 39.9944 5.16406H49.772C50.2565 5.16406 50.6231 5.28841 50.8716 5.53712C51.1335 5.78582 51.2644 6.15233 51.2644 6.63664C51.2644 7.10786 51.1335 7.47436 50.8716 7.73616C50.6231 7.98486 50.2565 8.10922 49.772 8.10922H46.6897V17.357C46.6897 17.9329 46.5389 18.3845 46.2379 18.7118C45.9368 19.0259 45.4854 19.183 44.8832 19.183Z" fill="#F8F4F1"/>
<path d="M54.3384 19.0063C53.7229 19.0063 53.2517 18.8492 52.9247 18.5351C52.6103 18.2078 52.4531 17.7432 52.4531 17.141V7.02933C52.4531 6.42722 52.6103 5.96909 52.9247 5.65492C53.2517 5.32769 53.7229 5.16406 54.3384 5.16406H60.9944C61.4657 5.16406 61.8189 5.28187 62.0545 5.51748C62.2901 5.75309 62.4081 6.09344 62.4081 6.53847C62.4081 6.9966 62.2901 7.35001 62.0545 7.59872C61.8189 7.83432 61.4657 7.95217 60.9944 7.95217H55.9089V10.5831H60.5624C61.0203 10.5831 61.3675 10.701 61.6031 10.9366C61.8516 11.1722 61.9761 11.519 61.9761 11.9772C61.9761 12.4353 61.8516 12.7822 61.6031 13.0178C61.3675 13.2534 61.0203 13.3712 60.5624 13.3712H55.9089V16.2182H60.9944C61.4657 16.2182 61.8189 16.3426 62.0545 16.5913C62.2901 16.8269 62.4081 17.1672 62.4081 17.6123C62.4081 18.0704 62.2901 18.4172 62.0545 18.6529C61.8189 18.8885 61.4657 19.0063 60.9944 19.0063H54.3384Z" fill="#F8F4F1"/>
<path d="M71.5423 19.2221C70.0107 19.2221 68.6952 18.9276 67.596 18.3385C66.4963 17.7495 65.6521 16.9183 65.0629 15.845C64.487 14.7716 64.1992 13.515 64.1992 12.0752C64.1992 11.0018 64.3625 10.0267 64.6899 9.14967C65.0301 8.27266 65.5147 7.52 66.1427 6.8917C66.7841 6.2634 67.5564 5.78563 68.4596 5.45841C69.3762 5.11809 70.4035 4.94791 71.5423 4.94791C72.1445 4.94791 72.766 5.01988 73.4078 5.16388C74.0621 5.29477 74.638 5.49769 75.1355 5.77254C75.502 5.9689 75.757 6.21761 75.9013 6.51865C76.0452 6.81972 76.0908 7.12731 76.0387 7.44148C75.9995 7.75561 75.888 8.03705 75.7049 8.28575C75.5214 8.53446 75.2858 8.7046 74.998 8.79625C74.7099 8.87478 74.3959 8.82895 74.0556 8.65881C73.6628 8.47553 73.27 8.33809 72.8776 8.24647C72.4977 8.14176 72.0988 8.08939 71.6797 8.08939C70.8682 8.08939 70.1877 8.24647 69.6376 8.56064C69.101 8.86168 68.6952 9.30671 68.4204 9.89578C68.1456 10.4848 68.0082 11.2113 68.0082 12.0752C68.0082 12.9391 68.1456 13.6721 68.4204 14.2742C68.6952 14.8632 69.101 15.3148 69.6376 15.629C70.1877 15.93 70.8682 16.0806 71.6797 16.0806C72.02 16.0806 72.3866 16.0413 72.7794 15.9628C73.1718 15.8711 73.5581 15.7337 73.9376 15.5505C74.3304 15.3803 74.6772 15.3345 74.9783 15.413C75.2927 15.4915 75.5412 15.6486 75.7243 15.8842C75.9207 16.1199 76.0452 16.3947 76.0977 16.7089C76.1498 17.01 76.1042 17.311 75.9599 17.6121C75.8293 17.9131 75.5937 18.1553 75.2531 18.3385C74.7952 18.6134 74.2258 18.8294 73.5452 18.9865C72.8776 19.1435 72.2099 19.2221 71.5423 19.2221Z" fill="#F8F4F1"/>
<path d="M79.8768 19.183C79.3009 19.183 78.8559 19.026 78.5419 18.7118C78.2275 18.3846 78.0703 17.9264 78.0703 17.3374V6.83306C78.0703 6.23094 78.2275 5.77278 78.5419 5.45864C78.8559 5.14447 79.3009 4.98743 79.8768 4.98743C80.466 4.98743 80.9109 5.14447 81.212 5.45864C81.526 5.77278 81.6832 6.23094 81.6832 6.83306V10.5047H87.3969V6.83306C87.3969 6.23094 87.5472 5.77278 87.8483 5.45864C88.1627 5.14447 88.6141 4.98743 89.2033 4.98743C89.7792 4.98743 90.2177 5.14447 90.5188 5.45864C90.8328 5.77278 90.99 6.23094 90.99 6.83306V17.3374C90.99 17.9264 90.8328 18.3846 90.5188 18.7118C90.2177 19.026 89.7792 19.183 89.2033 19.183C88.6141 19.183 88.1627 19.026 87.8483 18.7118C87.5472 18.3846 87.3969 17.9264 87.3969 17.3374V13.4695H81.6832V17.3374C81.6832 17.9264 81.5325 18.3846 81.2318 18.7118C80.9307 19.026 80.4789 19.183 79.8768 19.183Z" fill="#F8F4F1"/>
<path d="M95.3321 19.0062C94.7562 19.0062 94.3044 18.8492 93.9771 18.535C93.6631 18.2078 93.5059 17.7562 93.5059 17.1802V6.97041C93.5059 6.38135 93.6631 5.92977 93.9771 5.61563C94.2915 5.30146 94.7364 5.14438 95.3123 5.14438C95.9015 5.14438 96.3465 5.30146 96.6476 5.61563C96.9616 5.92977 97.1188 6.38135 97.1188 6.97041V16.0022H101.909C102.407 16.0022 102.786 16.1331 103.048 16.3949C103.323 16.6436 103.46 17.0101 103.46 17.4944C103.46 17.9787 103.323 18.3518 103.048 18.6136C102.786 18.8753 102.407 19.0062 101.909 19.0062H95.3321Z" fill="#F8F4F1"/>
<path d="M106.797 19.183C106.221 19.183 105.775 19.026 105.461 18.7118C105.147 18.3846 104.99 17.9264 104.99 17.3374V6.83306C104.99 6.23094 105.147 5.77278 105.461 5.45864C105.775 5.14447 106.221 4.98743 106.797 4.98743C107.386 4.98743 107.83 5.14447 108.132 5.45864C108.446 5.77278 108.603 6.23094 108.603 6.83306V17.3374C108.603 17.9264 108.452 18.3846 108.151 18.7118C107.85 19.026 107.399 19.183 106.797 19.183Z" fill="#F8F4F1"/>
<path d="M112.798 19.183C112.248 19.183 111.829 19.0391 111.541 18.7511C111.253 18.4631 111.109 18.0377 111.109 17.4749V6.77414C111.109 6.19821 111.253 5.75968 111.541 5.45864C111.829 5.14447 112.209 4.98743 112.68 4.98743C113.099 4.98743 113.426 5.06595 113.662 5.22304C113.897 5.38008 114.159 5.64188 114.447 6.00839L120.671 13.7836H120.122V6.67597C120.122 6.12619 120.259 5.70735 120.534 5.41936C120.821 5.13138 121.241 4.98743 121.79 4.98743C122.34 4.98743 122.752 5.13138 123.027 5.41936C123.315 5.70735 123.459 6.12619 123.459 6.67597V17.5534C123.459 18.0508 123.328 18.45 123.066 18.7511C122.805 19.0391 122.451 19.183 122.006 19.183C121.561 19.183 121.208 19.1045 120.946 18.9474C120.697 18.7773 120.429 18.5155 120.141 18.1621L113.917 10.3672H114.467V17.4749C114.467 18.0377 114.323 18.4631 114.035 18.7511C113.76 19.0391 113.347 19.183 112.798 19.183Z" fill="#F8F4F1"/>
<path d="M133.055 19.2221C131.471 19.2221 130.123 18.9276 129.01 18.3385C127.91 17.7495 127.073 16.9248 126.497 15.8646C125.921 14.8044 125.633 13.5674 125.633 12.1537C125.633 11.0542 125.803 10.0659 126.143 9.18891C126.497 8.29885 127.001 7.53965 127.655 6.91134C128.31 6.26994 129.108 5.78563 130.05 5.45841C131.006 5.11809 132.086 4.94791 133.29 4.94791C133.945 4.94791 134.612 5.01334 135.293 5.14423C135.974 5.26204 136.641 5.49114 137.296 5.83146C137.636 5.98855 137.865 6.21106 137.983 6.49901C138.114 6.7739 138.153 7.06843 138.101 7.38256C138.061 7.68364 137.95 7.96504 137.767 8.22683C137.597 8.47554 137.361 8.64571 137.06 8.73733C136.759 8.81586 136.419 8.77007 136.039 8.59989C135.646 8.41665 135.221 8.27921 134.763 8.18759C134.305 8.08284 133.821 8.0305 133.31 8.0305C132.433 8.0305 131.7 8.18759 131.111 8.50172C130.535 8.81586 130.103 9.28056 129.815 9.89578C129.527 10.511 129.383 11.2636 129.383 12.1537C129.383 13.4888 129.71 14.4967 130.365 15.1774C131.019 15.8581 131.988 16.1984 133.271 16.1984C133.663 16.1984 134.089 16.1591 134.547 16.0806C135.018 16.002 135.489 15.8908 135.96 15.7468L135.293 17.1016V13.7441H133.919C133.473 13.7441 133.127 13.6328 132.878 13.4103C132.642 13.1878 132.524 12.8736 132.524 12.4679C132.524 12.0621 132.642 11.7545 132.878 11.545C133.127 11.3225 133.473 11.2113 133.919 11.2113H136.824C137.283 11.2113 137.629 11.3356 137.865 11.5843C138.114 11.8199 138.238 12.1668 138.238 12.6249V16.9641C138.238 17.3568 138.153 17.6906 137.983 17.9655C137.826 18.2404 137.57 18.4367 137.217 18.5545C136.602 18.7639 135.934 18.9276 135.214 19.0454C134.495 19.1632 133.774 19.2221 133.055 19.2221Z" fill="#F8F4F1"/>
<path d="M147.332 19.2221C145.931 19.2221 144.701 18.9276 143.64 18.3385C142.58 17.7364 141.756 16.8987 141.167 15.8253C140.591 14.752 140.303 13.5019 140.303 12.0752C140.303 11.0018 140.466 10.0267 140.794 9.14967C141.134 8.27266 141.612 7.52 142.227 6.8917C142.855 6.2634 143.601 5.78563 144.465 5.45841C145.329 5.11809 146.285 4.94791 147.332 4.94791C148.733 4.94791 149.956 5.24244 151.003 5.83146C152.064 6.42048 152.888 7.25166 153.477 8.325C154.066 9.38528 154.361 10.6353 154.361 12.0752C154.361 13.1485 154.191 14.1237 153.85 15.0007C153.523 15.8777 153.045 16.6369 152.417 17.2783C151.802 17.9066 151.062 18.3909 150.198 18.7312C149.335 19.0585 148.379 19.2221 147.332 19.2221ZM147.332 16.1984C148.026 16.1984 148.615 16.0348 149.099 15.7075C149.583 15.3803 149.956 14.9091 150.218 14.2939C150.48 13.6787 150.611 12.9391 150.611 12.0752C150.611 10.7793 150.323 9.77142 149.747 9.0515C149.171 8.33154 148.366 7.97158 147.332 7.97158C146.651 7.97158 146.062 8.13521 145.565 8.46244C145.08 8.77661 144.707 9.24128 144.446 9.85649C144.184 10.4586 144.053 11.1982 144.053 12.0752C144.053 13.371 144.341 14.3855 144.917 15.1185C145.493 15.8384 146.298 16.1984 147.332 16.1984Z" fill="#F8F4F1"/>
<path d="M47.4384 26.9573L48.3431 23.4938H49.3396L47.9541 28.5052H46.9504L45.8055 24.9357L44.6601 28.5052H43.6423L42.25 23.4938H43.2819L44.2007 26.9431L45.3106 23.4938H46.3212L47.4384 26.9573Z" fill="#F8F4F1"/>
<path d="M50.3439 26.3704H51.8987C51.8892 26.1772 51.8188 26.0147 51.6867 25.8827C51.5596 25.7508 51.3712 25.6848 51.1211 25.6848C50.895 25.6848 50.7112 25.7555 50.57 25.8968C50.4287 26.0382 50.353 26.1961 50.3439 26.3704ZM51.9909 27.2751L52.7753 27.5084C52.6809 27.8288 52.4948 28.0927 52.2169 28.3001C51.9436 28.5074 51.6018 28.6111 51.1919 28.6111C50.6925 28.6111 50.2685 28.4438 49.9195 28.1092C49.5708 27.77 49.3965 27.3176 49.3965 26.7521C49.3965 26.2149 49.5662 25.7767 49.9054 25.4374C50.2449 25.0934 50.6453 24.9214 51.107 24.9214C51.6445 24.9214 52.0635 25.0816 52.3654 25.402C52.6718 25.7225 52.8248 26.1631 52.8248 26.7238C52.8248 26.7615 52.8225 26.8039 52.8176 26.8511C52.8176 26.8982 52.8176 26.9359 52.8176 26.9642L52.8107 27.0136H50.3226C50.3321 27.2398 50.4215 27.4283 50.5913 27.5791C50.7607 27.7299 50.9635 27.8053 51.1991 27.8053C51.5996 27.8053 51.8633 27.6286 51.9909 27.2751Z" fill="#F8F4F1"/>
<path d="M56.2527 28.5053H55.3125V25.0277H56.21V25.4518C56.2999 25.2916 56.4411 25.1643 56.6344 25.0701C56.8274 24.9758 57.0253 24.9287 57.2278 24.9287C57.7322 24.9287 58.0762 25.1219 58.2601 25.5083C58.5098 25.1219 58.8775 24.9287 59.3628 24.9287C59.716 24.9287 60.0129 25.0395 60.2534 25.2609C60.4982 25.4824 60.6208 25.8123 60.6208 26.2505V28.5053H59.7091V26.4414C59.7091 26.2434 59.657 26.0856 59.5535 25.9678C59.4545 25.8453 59.3015 25.784 59.094 25.784C58.9007 25.784 58.7454 25.8499 58.6274 25.9819C58.5098 26.1138 58.4508 26.2764 58.4508 26.4696V28.5053H57.5179V26.4414C57.5179 26.2434 57.4661 26.0856 57.3622 25.9678C57.2587 25.8453 57.1056 25.784 56.9028 25.784C56.7048 25.784 56.5473 25.8499 56.4293 25.9819C56.3117 26.1092 56.2527 26.2717 56.2527 26.4696V28.5053Z" fill="#F8F4F1"/>
<path d="M61.3613 27.5579C61.3613 27.261 61.458 27.023 61.6514 26.844C61.8443 26.6649 62.094 26.5518 62.4004 26.5047L63.2557 26.3774C63.43 26.3539 63.5172 26.2714 63.5172 26.1301C63.5172 25.9981 63.4654 25.8897 63.3619 25.8049C63.2629 25.7201 63.1191 25.6777 62.9307 25.6777C62.7327 25.6777 62.5748 25.7319 62.4572 25.8403C62.3441 25.9486 62.2802 26.083 62.2661 26.2432L61.4321 26.0664C61.4652 25.7649 61.6137 25.4986 61.8775 25.2677C62.1412 25.0368 62.4899 24.9214 62.9234 24.9214C63.4418 24.9214 63.8236 25.0462 64.0687 25.296C64.3135 25.541 64.436 25.8567 64.436 26.2432V27.9537C64.436 28.161 64.4501 28.3448 64.4787 28.505H63.6162C63.5926 28.4014 63.5808 28.2624 63.5808 28.088C63.3592 28.432 63.0178 28.604 62.5561 28.604C62.1979 28.604 61.9079 28.5003 61.6868 28.293C61.4698 28.0856 61.3613 27.8406 61.3613 27.5579ZM62.754 27.9042C62.9752 27.9042 63.1568 27.843 63.2983 27.7205C63.4441 27.5932 63.5172 27.3859 63.5172 27.0984V26.9429L62.7327 27.0631C62.4454 27.1055 62.3015 27.2516 62.3015 27.5013C62.3015 27.6144 62.3414 27.711 62.4218 27.7911C62.5017 27.8665 62.6125 27.9042 62.754 27.9042Z" fill="#F8F4F1"/>
<path d="M68.7544 25.0277L67.3621 26.4909L68.7826 28.5054H67.6304L66.7116 27.1765L66.323 27.5865V28.5054H65.3828V23.3879H66.323V26.3213L67.5246 25.0277H68.7544Z" fill="#F8F4F1"/>
<path d="M69.8591 26.3704H71.4144C71.4049 26.1772 71.3341 26.0146 71.2024 25.8827C71.0748 25.7507 70.8864 25.6847 70.6367 25.6847C70.4106 25.6847 70.2268 25.7554 70.0856 25.8968C69.944 26.0382 69.8686 26.196 69.8591 26.3704ZM71.5061 27.2751L72.291 27.5084C72.1966 27.8288 72.0104 28.0927 71.7322 28.3C71.4589 28.5074 71.1175 28.611 70.7075 28.611C70.2078 28.611 69.7838 28.4438 69.4351 28.1092C69.0864 27.7699 68.9121 27.3176 68.9121 26.7521C68.9121 26.2149 69.0819 25.7767 69.421 25.4374C69.7602 25.0934 70.161 24.9214 70.6227 24.9214C71.1597 24.9214 71.5792 25.0816 71.8806 25.402C72.187 25.7225 72.3401 26.163 72.3401 26.7238C72.3401 26.7615 72.3378 26.8039 72.3332 26.851C72.3332 26.8981 72.3332 26.9359 72.3332 26.9641L72.326 27.0136H69.8382C69.8473 27.2398 69.9371 27.4283 70.1065 27.5791C70.2763 27.7299 70.4788 27.8053 70.7144 27.8053C71.1152 27.8053 71.379 27.6286 71.5061 27.2751Z" fill="#F8F4F1"/>
<path d="M75.8861 28.5052H74.8965V23.4938H75.8861V28.5052Z" fill="#F8F4F1"/>
<path d="M80.7196 24.4197H79.1361V28.5052H78.1537V24.4197H76.5703V23.4938H80.7196V24.4197Z" fill="#F8F4F1"/>
<path d="M83.7673 26.3704H85.3226C85.313 26.1772 85.2423 26.0147 85.1106 25.8827C84.983 25.7508 84.7946 25.6848 84.5449 25.6848C84.3188 25.6848 84.135 25.7555 83.9938 25.8968C83.8522 26.0382 83.7768 26.1961 83.7673 26.3704ZM85.4143 27.2751L86.1992 27.5084C86.1048 27.8288 85.9186 28.0927 85.6404 28.3001C85.3671 28.5074 85.0257 28.6111 84.6157 28.6111C84.116 28.6111 83.692 28.4438 83.3433 28.1092C82.9946 27.77 82.8203 27.3176 82.8203 26.7521C82.8203 26.2149 82.9901 25.7767 83.3292 25.4374C83.6684 25.0934 84.0692 24.9214 84.5309 24.9214C85.0679 24.9214 85.4874 25.0816 85.7888 25.402C86.0952 25.7225 86.2486 26.1631 86.2486 26.7238C86.2486 26.7615 86.246 26.8039 86.2414 26.8511C86.2414 26.8982 86.2414 26.9359 86.2414 26.9642L86.2342 27.0136H83.7464C83.7555 27.2398 83.8453 27.4283 84.0147 27.5791C84.1845 27.7299 84.387 27.8053 84.6226 27.8053C85.0234 27.8053 85.2872 27.6286 85.4143 27.2751Z" fill="#F8F4F1"/>
<path d="M86.7773 27.5579C86.7773 27.261 86.874 27.023 87.0674 26.844C87.2604 26.6649 87.5101 26.5518 87.8165 26.5047L88.6717 26.3774C88.8461 26.3539 88.9332 26.2714 88.9332 26.1301C88.9332 25.9981 88.8815 25.8897 88.7779 25.8049C88.679 25.7201 88.5351 25.6777 88.3467 25.6777C88.1488 25.6777 87.9908 25.7319 87.8732 25.8403C87.7601 25.9486 87.6962 26.083 87.6821 26.2432L86.8481 26.0664C86.8813 25.7649 87.0297 25.4986 87.2935 25.2677C87.5573 25.0368 87.9059 24.9214 88.3394 24.9214C88.8579 24.9214 89.2396 25.0462 89.4848 25.296C89.7299 25.541 89.8521 25.8567 89.8521 26.2432V27.9537C89.8521 28.161 89.8665 28.3448 89.8947 28.505H89.0322C89.0086 28.4014 88.9968 28.2624 88.9968 28.088C88.7756 28.432 88.4338 28.604 87.9721 28.604C87.614 28.604 87.3239 28.5003 87.1028 28.293C86.8858 28.0856 86.7773 27.8406 86.7773 27.5579ZM88.1701 27.9042C88.3916 27.9042 88.5728 27.843 88.7144 27.7205C88.8601 27.5932 88.9332 27.3859 88.9332 27.0984V26.9429L88.1487 27.0631C87.8614 27.1055 87.7175 27.2516 87.7175 27.5013C87.7175 27.6144 87.7575 27.711 87.8378 27.7911C87.9177 27.8665 88.0285 27.9042 88.1701 27.9042Z" fill="#F8F4F1"/>
<path d="M90.502 27.5367L91.3077 27.36C91.3173 27.5108 91.3763 27.638 91.4844 27.7417C91.5974 27.8406 91.7508 27.8901 91.9438 27.8901C92.0899 27.8901 92.203 27.8571 92.2833 27.7912C92.3632 27.7252 92.4032 27.6427 92.4032 27.5438C92.4032 27.3694 92.2783 27.2563 92.0287 27.2045L91.5692 27.0985C91.2442 27.0278 90.9991 26.9005 90.8342 26.7168C90.674 26.533 90.5937 26.3139 90.5937 26.0594C90.5937 25.7437 90.7162 25.4751 90.9614 25.2536C91.2111 25.0321 91.522 24.9214 91.8943 24.9214C92.1299 24.9214 92.3373 24.9567 92.5166 25.0274C92.6955 25.0934 92.8344 25.1806 92.9334 25.289C93.0324 25.3926 93.1077 25.4986 93.1595 25.607C93.2117 25.7154 93.2444 25.8215 93.2585 25.9251L92.474 26.1018C92.4553 25.9793 92.3986 25.8709 92.3042 25.7767C92.2148 25.6824 92.0804 25.6353 91.9015 25.6353C91.779 25.6353 91.6728 25.6683 91.5833 25.7342C91.4984 25.8002 91.4562 25.8827 91.4562 25.9817C91.4562 26.1513 91.5624 26.2549 91.7744 26.2927L92.2692 26.3987C92.6038 26.4694 92.8581 26.599 93.0324 26.7875C93.2117 26.9759 93.3011 27.2021 93.3011 27.466C93.3011 27.777 93.1831 28.0456 92.9475 28.2718C92.7119 28.498 92.38 28.6111 91.951 28.6111C91.7059 28.6111 91.4866 28.5758 91.2937 28.5051C91.1003 28.4297 90.9496 28.3354 90.8411 28.2223C90.7376 28.1045 90.6576 27.9891 90.6009 27.876C90.5492 27.7582 90.516 27.6451 90.502 27.5367Z" fill="#F8F4F1"/>
<path d="M95.205 29.8765H94.2081L95.028 28.067L93.5508 25.0276H94.604L95.5301 27.0633L96.3853 25.0276H97.389L95.205 29.8765Z" fill="#F8F4F1"/>
<path d="M100.863 23.9886V25.0276H101.562V25.8617H100.863V27.3178C100.863 27.4638 100.896 27.5675 100.962 27.6288C101.028 27.69 101.131 27.7207 101.273 27.7207C101.4 27.7207 101.497 27.7112 101.562 27.6924V28.4699C101.426 28.5264 101.249 28.5547 101.032 28.5547C100.693 28.5547 100.424 28.4605 100.226 28.272C100.029 28.0788 99.9296 27.8149 99.9296 27.4803V25.8617H99.3008V25.0276H99.4774C99.6517 25.0276 99.7838 24.9781 99.8732 24.8792C99.9673 24.7755 100.014 24.6412 100.014 24.4763V23.9886H100.863Z" fill="#F8F4F1"/>
<path d="M103.261 27.4942C103.436 27.6686 103.645 27.7558 103.89 27.7558C104.135 27.7558 104.343 27.6686 104.512 27.4942C104.687 27.3199 104.774 27.0772 104.774 26.7662C104.774 26.4552 104.687 26.2125 104.512 26.0382C104.343 25.8638 104.135 25.7767 103.89 25.7767C103.645 25.7767 103.436 25.8638 103.261 26.0382C103.091 26.2125 103.007 26.4552 103.007 26.7662C103.007 27.0772 103.091 27.3199 103.261 27.4942ZM102.583 25.4444C102.931 25.0957 103.367 24.9214 103.89 24.9214C104.413 24.9214 104.847 25.0957 105.191 25.4444C105.539 25.7931 105.714 26.2337 105.714 26.7662C105.714 27.2987 105.539 27.7393 105.191 28.088C104.847 28.4367 104.413 28.611 103.89 28.611C103.367 28.611 102.931 28.4367 102.583 28.088C102.238 27.7393 102.066 27.2987 102.066 26.7662C102.066 26.2337 102.238 25.7931 102.583 25.4444Z" fill="#F8F4F1"/>
<path d="M107.953 28.6959L108.802 28.4697C108.834 28.6629 108.924 28.8208 109.07 28.9433C109.216 29.0658 109.398 29.127 109.614 29.127C110.232 29.127 110.54 28.8043 110.54 28.1587V27.9042C110.46 28.0315 110.338 28.1375 110.173 28.2223C110.008 28.3071 109.808 28.3495 109.572 28.3495C109.11 28.3495 108.724 28.1893 108.413 27.8689C108.107 27.5485 107.953 27.1456 107.953 26.6602C107.953 26.189 108.107 25.7884 108.413 25.4586C108.719 25.1287 109.105 24.9638 109.572 24.9638C109.826 24.9638 110.039 25.0109 110.208 25.1052C110.378 25.1947 110.495 25.3054 110.562 25.4374V25.0274H111.466V28.1304C111.466 28.6535 111.316 29.087 111.014 29.431C110.712 29.7797 110.255 29.9541 109.643 29.9541C109.186 29.9541 108.802 29.8316 108.491 29.5865C108.184 29.3415 108.005 29.0446 107.953 28.6959ZM109.734 27.5437C109.975 27.5437 110.17 27.4637 110.321 27.3034C110.477 27.1432 110.554 26.9288 110.554 26.6602C110.554 26.3963 110.474 26.1843 110.314 26.024C110.158 25.8638 109.966 25.7837 109.734 25.7837C109.494 25.7837 109.294 25.8638 109.134 26.024C108.978 26.1843 108.901 26.3963 108.901 26.6602C108.901 26.9288 108.978 27.1432 109.134 27.3034C109.289 27.4637 109.489 27.5437 109.734 27.5437Z" fill="#F8F4F1"/>
<path d="M114.538 25.0134V25.9606C114.444 25.9417 114.35 25.9323 114.256 25.9323C113.987 25.9323 113.77 26.0101 113.606 26.1656C113.44 26.3164 113.358 26.5661 113.358 26.9148V28.5052H112.418V25.0275H113.33V25.5435C113.499 25.1807 113.829 24.9993 114.319 24.9993C114.371 24.9993 114.444 25.004 114.538 25.0134Z" fill="#F8F4F1"/>
<path d="M115.01 27.5579C115.01 27.261 115.106 27.023 115.3 26.844C115.493 26.6649 115.743 26.5518 116.049 26.5047L116.904 26.3774C117.078 26.3539 117.166 26.2714 117.166 26.1301C117.166 25.9981 117.114 25.8897 117.01 25.8049C116.911 25.7201 116.768 25.6777 116.579 25.6777C116.381 25.6777 116.223 25.7319 116.106 25.8403C115.993 25.9486 115.929 26.083 115.915 26.2432L115.081 26.0664C115.114 25.7649 115.262 25.4986 115.526 25.2677C115.79 25.0368 116.139 24.9214 116.572 24.9214C117.09 24.9214 117.472 25.0462 117.717 25.296C117.962 25.541 118.085 25.8567 118.085 26.2432V27.9537C118.085 28.161 118.099 28.3448 118.127 28.505H117.265C117.241 28.4014 117.23 28.2624 117.23 28.088C117.008 28.432 116.666 28.604 116.205 28.604C115.846 28.604 115.557 28.5003 115.335 28.293C115.118 28.0856 115.01 27.8406 115.01 27.5579ZM116.402 27.9042C116.624 27.9042 116.805 27.843 116.947 27.7205C117.093 27.5932 117.166 27.3859 117.166 27.0984V26.9429L116.381 27.0631C116.094 27.1055 115.95 27.2516 115.95 27.5013C115.95 27.6144 115.99 27.711 116.07 27.7911C116.15 27.8665 116.261 27.9042 116.402 27.9042Z" fill="#F8F4F1"/>
<path d="M118.734 27.5366L119.54 27.36C119.55 27.5108 119.609 27.638 119.717 27.7417C119.83 27.8406 119.983 27.8901 120.176 27.8901C120.322 27.8901 120.435 27.8571 120.516 27.7911C120.596 27.7252 120.636 27.6427 120.636 27.5437C120.636 27.3694 120.511 27.2563 120.261 27.2044L119.802 27.0984C119.477 27.0277 119.231 26.9005 119.067 26.7167C118.906 26.533 118.826 26.3138 118.826 26.0594C118.826 25.7437 118.949 25.4751 119.194 25.2536C119.443 25.0321 119.754 24.9214 120.127 24.9214C120.362 24.9214 120.57 24.9567 120.749 25.0274C120.928 25.0934 121.067 25.1806 121.166 25.2889C121.265 25.3926 121.34 25.4986 121.392 25.607C121.444 25.7154 121.477 25.8214 121.491 25.9251L120.706 26.1018C120.688 25.9793 120.631 25.8709 120.537 25.7767C120.447 25.6824 120.313 25.6353 120.134 25.6353C120.011 25.6353 119.906 25.6683 119.816 25.7342C119.731 25.8002 119.689 25.8827 119.689 25.9816C119.689 26.1513 119.795 26.2549 120.007 26.2926L120.502 26.3986C120.836 26.4693 121.09 26.5989 121.265 26.7874C121.444 26.9759 121.534 27.2021 121.534 27.466C121.534 27.777 121.416 28.0456 121.18 28.2718C120.944 28.498 120.612 28.611 120.183 28.611C119.938 28.611 119.719 28.5757 119.526 28.505C119.333 28.4296 119.182 28.3354 119.074 28.2223C118.97 28.1045 118.89 27.989 118.833 27.8759C118.782 27.7581 118.748 27.6451 118.734 27.5366Z" fill="#F8F4F1"/>
<path d="M123.229 29.848H122.289V25.0274H123.201V25.4515C123.286 25.3101 123.422 25.1923 123.611 25.0981C123.799 24.9991 124.018 24.9496 124.268 24.9496C124.763 24.9496 125.154 25.1193 125.441 25.4586C125.729 25.7932 125.873 26.2267 125.873 26.7592C125.873 27.2917 125.72 27.7299 125.413 28.0739C125.112 28.4179 124.718 28.5899 124.233 28.5899C123.771 28.5899 123.436 28.4485 123.229 28.1658V29.848ZM124.699 27.4872C124.864 27.3081 124.947 27.0678 124.947 26.7662C124.947 26.4647 124.864 26.2267 124.699 26.0523C124.539 25.878 124.334 25.7908 124.084 25.7908C123.835 25.7908 123.627 25.8803 123.462 26.0594C123.297 26.2337 123.215 26.4693 123.215 26.7662C123.215 27.0631 123.297 27.3011 123.462 27.4801C123.627 27.6592 123.835 27.7488 124.084 27.7488C124.334 27.7488 124.539 27.6615 124.699 27.4872Z" fill="#F8F4F1"/>
<path d="M129.976 24.1652C129.844 24.1652 129.728 24.2029 129.629 24.2783C129.535 24.349 129.488 24.4715 129.488 24.6458V25.0275H130.272V25.8333H129.488V28.5052H128.541V25.8333H127.961V25.0275H128.541V24.6317C128.541 24.2406 128.654 23.9272 128.88 23.6916C129.111 23.456 129.42 23.3382 129.806 23.3382C130.013 23.3382 130.169 23.3617 130.272 23.4088V24.2005C130.192 24.177 130.093 24.1652 129.976 24.1652Z" fill="#F8F4F1"/>
<path d="M131.74 27.4943C131.914 27.6686 132.124 27.7558 132.369 27.7558C132.614 27.7558 132.821 27.6686 132.991 27.4943C133.165 27.3199 133.252 27.0773 133.252 26.7662C133.252 26.4552 133.165 26.2125 132.991 26.0382C132.821 25.8639 132.614 25.7767 132.369 25.7767C132.124 25.7767 131.914 25.8639 131.74 26.0382C131.57 26.2125 131.485 26.4552 131.485 26.7662C131.485 27.0773 131.57 27.3199 131.74 27.4943ZM131.061 25.4445C131.41 25.0957 131.846 24.9214 132.369 24.9214C132.892 24.9214 133.325 25.0957 133.669 25.4445C134.018 25.7932 134.192 26.2337 134.192 26.7662C134.192 27.2987 134.018 27.7393 133.669 28.088C133.325 28.4367 132.892 28.6111 132.369 28.6111C131.846 28.6111 131.41 28.4367 131.061 28.088C130.717 27.7393 130.545 27.2987 130.545 26.7662C130.545 26.2337 130.717 25.7932 131.061 25.4445Z" fill="#F8F4F1"/>
<path d="M137.054 25.0134V25.9606C136.96 25.9417 136.866 25.9323 136.771 25.9323C136.503 25.9323 136.286 26.0101 136.121 26.1656C135.956 26.3164 135.874 26.5661 135.874 26.9148V28.5052H134.934V25.0275H135.846V25.5435C136.015 25.1807 136.345 24.9993 136.835 24.9993C136.887 24.9993 136.96 25.004 137.054 25.0134Z" fill="#F8F4F1"/>
<path d="M140.644 29.8765H139.648L140.467 28.067L138.99 25.0276H140.043L140.969 27.0633L141.824 25.0276H142.828L140.644 29.8765Z" fill="#F8F4F1"/>
<path d="M144.166 27.4943C144.34 27.6686 144.55 27.7558 144.794 27.7558C145.039 27.7558 145.247 27.6686 145.417 27.4943C145.591 27.3199 145.678 27.0773 145.678 26.7662C145.678 26.4552 145.591 26.2125 145.417 26.0382C145.247 25.8639 145.039 25.7767 144.794 25.7767C144.55 25.7767 144.34 25.8639 144.166 26.0382C143.996 26.2125 143.911 26.4552 143.911 26.7662C143.911 27.0773 143.996 27.3199 144.166 27.4943ZM143.487 25.4445C143.835 25.0957 144.271 24.9214 144.794 24.9214C145.318 24.9214 145.751 25.0957 146.095 25.4445C146.444 25.7932 146.618 26.2337 146.618 26.7662C146.618 27.2987 146.444 27.7393 146.095 28.088C145.751 28.4367 145.318 28.6111 144.794 28.6111C144.271 28.6111 143.835 28.4367 143.487 28.088C143.143 27.7393 142.971 27.2987 142.971 26.7662C142.971 26.2337 143.143 25.7932 143.487 25.4445Z" fill="#F8F4F1"/>
<path d="M149.622 28.5052C149.603 28.411 149.594 28.2861 149.594 28.1306C149.504 28.2861 149.37 28.4039 149.191 28.484C149.017 28.5594 148.83 28.5971 148.632 28.5971C148.223 28.5971 147.9 28.4675 147.664 28.2083C147.429 27.9445 147.311 27.617 147.311 27.2259V25.0276H148.251V27.035C148.251 27.2423 148.305 27.412 148.413 27.5439C148.522 27.6712 148.679 27.7348 148.887 27.7348C149.09 27.7348 149.249 27.6735 149.367 27.551C149.485 27.4238 149.544 27.2565 149.544 27.0491V25.0276H150.484V27.8761C150.484 28.0976 150.496 28.3073 150.52 28.5052H149.622Z" fill="#F8F4F1"/>
</g>
<defs>
<clipPath id="clip0_4204_12279">
<rect width="154.535" height="35.0178" fill="white"/>
</clipPath>
</defs>
</svg>
