<svg width="250" height="40" viewBox="0 0 250 40" fill="none" xmlns="http://www.w3.org/2000/svg">
<rect width="40" height="40" rx="10" fill="#9FE870"/>
<path d="M16.8452 26.5807H11.8C11.0168 26.5807 10.2923 26.163 9.89904 25.4843L7.37806 21.1167V21.1151H7.37642L4.2207 15.6512H7.64402C9.43074 15.6512 11.0837 16.604 11.9762 18.1523L13.6879 21.1151L16.8452 26.5807Z" fill="#001A13"/>
<path d="M16.8471 24.3503L13.6914 18.8847L15.4031 15.9203C16.2972 14.3736 17.9485 13.4192 19.7352 13.4192H23.1569L20.0012 18.8831V18.8847L16.8471 24.3503Z" fill="#001A13"/>
<path d="M29.4672 26.5808H24.4219C23.6387 26.5808 22.9142 26.1631 22.521 25.4844L20 21.1169V21.1153L23.1557 15.6513H23.1574L26.3131 21.1153H26.3147V21.1169L29.4672 26.5808Z" fill="#001A13"/>
<path d="M29.4682 24.3506L26.3125 18.8866V18.885L28.0242 15.9222C28.9183 14.3739 30.5696 13.4211 32.3563 13.4211H35.7797L32.6239 18.885H32.6223L29.4682 24.3506Z" fill="#001A13"/>
<path d="M53.666 26.53L50.442 11.502H54.238L56.994 25.36C57.02 25.464 57.046 25.49 57.072 25.49C57.098 25.49 57.124 25.464 57.15 25.36L59.672 14.284C60.14 12.152 61.206 11.242 62.766 11.242C64.326 11.242 65.366 12.152 65.86 14.258L68.434 25.36C68.46 25.464 68.46 25.49 68.512 25.49C68.538 25.49 68.538 25.438 68.564 25.36L71.216 11.502H75.012L71.892 26.452C71.502 28.298 70.358 29.364 68.668 29.364C67.108 29.364 65.86 28.376 65.444 26.608L62.766 15.116L60.114 26.686C59.724 28.376 58.424 29.364 56.916 29.364C55.304 29.364 54.056 28.376 53.666 26.53ZM81.5951 29.338C77.5911 29.338 74.5751 26.556 74.5751 22.448C74.5751 18.73 77.2791 15.662 81.2571 15.662C85.3391 15.662 87.7051 18.678 87.7051 22.188V23.28H78.1371C78.3971 24.996 79.7231 26.14 81.5691 26.14C82.9731 26.14 84.1431 25.464 84.7411 24.268L87.5751 25.698C86.4571 28.012 84.3251 29.338 81.5951 29.338ZM78.2931 21.226H84.0391C83.8831 19.9 82.7911 18.886 81.2311 18.886C79.6191 18.886 78.5531 19.926 78.2931 21.226ZM95.3747 35.266C92.3587 35.266 90.0447 33.94 88.8747 31.548L91.9427 29.884C92.5147 31.002 93.5807 31.886 95.3227 31.886C97.5067 31.886 98.9887 30.352 98.9887 27.83V27.596C98.2867 28.48 97.0387 29.156 95.2187 29.156C91.6047 29.156 88.7187 26.348 88.7187 22.526C88.7187 18.808 91.7347 15.766 95.6867 15.766C99.7167 15.766 102.681 18.652 102.681 22.526V27.726C102.681 32.302 99.5607 35.266 95.3747 35.266ZM95.6347 25.672C97.4807 25.672 98.9367 24.294 98.9367 22.448C98.9367 20.602 97.4807 19.25 95.6347 19.25C93.8147 19.25 92.3587 20.602 92.3587 22.448C92.3587 24.294 93.8147 25.672 95.6347 25.672ZM111.101 29.338C107.097 29.338 104.081 26.556 104.081 22.448C104.081 18.73 106.785 15.662 110.763 15.662C114.845 15.662 117.211 18.678 117.211 22.188V23.28H107.643C107.903 24.996 109.229 26.14 111.075 26.14C112.479 26.14 113.649 25.464 114.247 24.268L117.081 25.698C115.963 28.012 113.831 29.338 111.101 29.338ZM107.799 21.226H113.545C113.389 19.9 112.297 18.886 110.737 18.886C109.125 18.886 108.059 19.926 107.799 21.226ZM135.099 15.662C139.285 15.662 141.417 18.678 141.417 22.266V29H137.725V22.89C137.725 20.914 136.867 19.25 134.839 19.25C132.837 19.25 131.979 20.888 131.979 22.838V29H128.287V22.864C128.287 20.888 127.429 19.25 125.427 19.25C123.373 19.25 122.567 20.914 122.567 22.864V29H118.875V22.266C118.875 18.678 120.981 15.662 125.141 15.662C127.611 15.662 129.405 16.754 130.159 18.522C130.965 16.754 132.785 15.662 135.099 15.662ZM148.523 29.364C145.845 29.364 143.973 28.376 142.907 26.452L145.637 24.918C146.183 25.958 147.041 26.4 148.341 26.4C149.537 26.4 150.291 25.932 150.291 25.178C150.291 23.098 143.219 24.892 143.219 19.926C143.219 17.612 145.247 15.792 148.419 15.792C151.175 15.792 152.839 17.092 153.619 18.574L150.889 20.108C150.473 19.172 149.537 18.73 148.497 18.73C147.587 18.73 146.911 19.172 146.911 19.848C146.911 21.928 153.983 20.264 153.983 25.1C153.983 27.7 151.461 29.364 148.523 29.364ZM168.184 29.338C165.038 29.338 162.516 28.012 161.398 25.516L164.57 23.93C165.142 25.204 166.364 25.854 168.184 25.854C169.822 25.854 171.07 25.178 171.07 23.93C171.07 22.474 169.692 22.24 167.872 21.928C165.246 21.486 161.684 20.55 161.684 16.598C161.684 13.53 164.44 11.19 168.054 11.19C170.94 11.19 173.436 12.516 174.554 15.012L171.382 16.598C170.81 15.48 169.666 14.7 167.898 14.7C166.468 14.7 165.48 15.376 165.48 16.442C165.48 17.846 166.936 18.21 168.834 18.548C171.434 18.99 174.866 19.926 174.866 23.904C174.866 27.05 171.902 29.338 168.184 29.338ZM182.815 29.364C179.097 29.364 177.251 27.128 177.251 23.904V19.25H174.885V16.13H177.251V12.854H180.943V16.13H185.493V19.25H180.943V23.8C180.943 25.23 181.801 26.062 183.153 26.062C183.907 26.062 184.869 25.828 185.493 25.438V28.74C184.843 29.156 183.725 29.364 182.815 29.364ZM193.448 25.776C195.346 25.776 196.308 24.086 196.308 22.084V16.13H200V22.526C200 26.296 197.764 29.338 193.448 29.338C189.158 29.338 186.922 26.296 186.922 22.526V16.13H190.614V22.11C190.614 24.086 191.55 25.776 193.448 25.776ZM208.226 29.364C204.274 29.364 201.258 26.296 201.258 22.578C201.258 18.574 204.014 15.766 208.018 15.766C209.318 15.766 210.566 16.234 211.502 16.988L211.528 10.202H215.22V22.578C215.22 26.478 212.256 29.364 208.226 29.364ZM208.226 25.88C210.124 25.88 211.528 24.398 211.528 22.578C211.528 20.758 210.124 19.25 208.226 19.25C206.328 19.25 204.95 20.758 204.95 22.578C204.95 24.398 206.328 25.88 208.226 25.88ZM219.636 14.206C218.388 14.206 217.348 13.192 217.348 11.918C217.348 10.67 218.388 9.63 219.636 9.63C220.884 9.63 221.898 10.67 221.898 11.918C221.898 13.192 220.884 14.206 219.636 14.206ZM217.79 16.13H221.482V29H217.79V16.13ZM230.369 29.338C226.417 29.338 223.401 26.27 223.401 22.526C223.401 18.808 226.443 15.74 230.369 15.74C234.347 15.74 237.363 18.834 237.363 22.526C237.363 26.27 234.321 29.338 230.369 29.338ZM230.369 25.88C232.267 25.88 233.671 24.372 233.671 22.552C233.671 20.732 232.267 19.224 230.369 19.224C228.471 19.224 227.093 20.732 227.093 22.552C227.093 24.372 228.471 25.88 230.369 25.88Z" fill="#F8F4F1"/>
</svg>
