<svg xmlns="http://www.w3.org/2000/svg" viewBox="0 0 256 256">
  <rect width="256" height="256" fill="#f7f7f4"/>
  <rect x="34" y="54" width="96" height="96" fill="#111"/>
  <circle cx="82" cy="102" r="36" fill="#f7f7f4"/>
  <g fill="none" stroke="#111" stroke-width="2" stroke-linecap="round">
    <line x1="82" y1="102" x2="82" y2="128"/>
    <circle cx="82" cy="102" r="2.5" fill="#111"/>
  </g>
  <g fill="#111">
    <circle cx="82" cy="74" r="1.8"/>
    <circle cx="82" cy="80" r="1.8"/>
    <circle cx="82" cy="86" r="1.8"/>
    <circle cx="82" cy="92" r="1.8"/>
    <circle cx="58" cy="102" r="1.8"/>
    <circle cx="64" cy="102" r="1.8"/>
    <circle cx="70" cy="102" r="1.8"/>
    <circle cx="94" cy="102" r="1.8"/>
    <circle cx="100" cy="102" r="1.8"/>
    <circle cx="106" cy="102" r="1.8"/>
  </g>
  <g fill="#111" font-family="Arial, sans-serif">
    <text x="146" y="90" font-size="18" letter-spacing="2">(ANALOG)</text>
    <text x="146" y="126" font-size="11" letter-spacing="1.4">VECTOR PATH - STABLE</text>
    <text x="146" y="144" font-size="11" letter-spacing="1.4">RATE: CONSTANT | TEMP: 26°C</text>
    <text x="146" y="106" font-size="9" letter-spacing="1.6">STANDBY // - ID: 65-0C</text>
  </g>
  <g fill="none" stroke="#111" stroke-width="2">
    <circle cx="214" cy="90" r="10"/>
    <line x1="204" y1="90" x2="224" y2="90"/>
    <line x1="214" y1="80" x2="214" y2="100"/>
    <circle cx="214" cy="112" r="10"/>
    <line x1="204" y1="112" x2="224" y2="112"/>
    <line x1="214" y1="102" x2="214" y2="122"/>
    <circle cx="214" cy="134" r="10"/>
    <line x1="204" y1="134" x2="224" y2="134"/>
    <line x1="214" y1="124" x2="214" y2="144"/>
  </g>
</svg>
