<svg xmlns="http://www.w3.org/2000/svg" viewBox="0 0 256 256">
  <rect width="256" height="256" fill="#f7f7f4"/>
  <g fill="none" stroke="#111" stroke-width="2">
    <circle cx="88" cy="88" r="16"/>
    <circle cx="112" cy="88" r="16" opacity="0.9"/>
    <path d="M144 72a16 16 0 1 1 0 32"/>
    <path d="M162 74c10 4 16 14 16 24s-6 20-16 24"/>
  </g>
  <g fill="#111">
    <circle cx="179" cy="83" r="2.5"/>
    <circle cx="184" cy="89" r="2.5"/>
    <circle cx="186" cy="97" r="2.5"/>
    <circle cx="184" cy="105" r="2.5"/>
    <circle cx="179" cy="111" r="2.5"/>
  </g>
  <g fill="none" stroke="#111" stroke-width="2" stroke-linecap="round">
    <rect x="40" y="130" width="34" height="12" rx="6"/>
    <rect x="82" y="130" width="40" height="12" rx="6"/>
    <line x1="36" y1="136" x2="20" y2="136"/>
    <line x1="126" y1="136" x2="196" y2="136"/>
    <line x1="196" y1="136" x2="212" y2="136"/>
  </g>
  <g fill="#111" font-family="Arial, sans-serif">
    <text x="36" y="46" font-size="16" letter-spacing="2">ARCHIVE_LOG</text>
    <text x="36" y="170" font-size="13" letter-spacing="1.5">ACCESS CONFIRMED</text>
    <text x="36" y="194" font-size="11" letter-spacing="1">NODE: EGH-9320</text>
    <text x="36" y="214" font-size="11" letter-spacing="1">PORT: 07</text>
  </g>
</svg>
