<svg xmlns="http://www.w3.org/2000/svg" viewBox="0 0 256 256">
  <rect width="256" height="256" fill="#faf9f4"/>
  <path d="M16 30H240l10 10v176l-10 10H16L6 216V40Z" fill="none" stroke="#111" stroke-width="2.5" stroke-linejoin="round"/>
  <g fill="#111" font-family="Arial, sans-serif" font-weight="700">
    <text x="34" y="44" font-size="12" letter-spacing="1.5">CAUSE</text>
    <text x="104" y="44" font-size="12" letter-spacing="1.5">CONDITION</text>
    <text x="190" y="44" font-size="12" letter-spacing="1.5">RESULT</text>
  </g>
  <g fill="none" stroke="#111" stroke-width="2.2">
    <circle cx="52" cy="118" r="40"/>
    <circle cx="128" cy="118" r="40"/>
    <circle cx="204" cy="118" r="40"/>
    <line x1="92" y1="118" x2="104" y2="118"/>
    <line x1="168" y1="118" x2="180" y2="118"/>
  </g>
  <g fill="#111" font-family="Arial, sans-serif">
    <text x="36" y="110" font-size="10" letter-spacing="1.2">CAUSE</text>
    <text x="28" y="128" font-size="9" letter-spacing="1.2">MODULE:</text>
    <text x="38" y="144" font-size="9" letter-spacing="1.2">ACTIVE</text>
    <text x="112" y="110" font-size="10" letter-spacing="1.2">CONDITION</text>
    <text x="118" y="128" font-size="9" letter-spacing="1.2">LINK:</text>
    <text x="106" y="144" font-size="9" letter-spacing="1.2">ESTABLISHED</text>
    <text x="190" y="110" font-size="10" letter-spacing="1.2">RESULT</text>
    <text x="190" y="128" font-size="9" letter-spacing="1.2">OUTPUT:</text>
    <text x="180" y="144" font-size="9" letter-spacing="1.2">GENERATED</text>
    <text x="20" y="196" font-size="9" letter-spacing="1.2">KARMA LOG: RECORDING</text>
    <text x="20" y="212" font-size="9" letter-spacing="1.2">CONNECTION: LINKED</text>
  </g>
  <g fill="#111">
    <circle cx="52" cy="82" r="5"/>
    <rect x="43" y="90" width="18" height="18" rx="4" fill="none" stroke="#111" stroke-width="2"/>
    <circle cx="128" cy="84" r="5"/>
    <circle cx="128" cy="96" r="3"/>
    <circle cx="128" cy="104" r="3"/>
    <circle cx="122" cy="112" r="3"/>
    <circle cx="134" cy="112" r="3"/>
    <circle cx="204" cy="84" r="6"/>
    <rect x="194" y="92" width="20" height="6"/>
    <rect x="194" y="102" width="20" height="6"/>
    <rect x="194" y="112" width="20" height="6"/>
  </g>
</svg>
