<svg xmlns="http://www.w3.org/2000/svg" viewBox="0 0 256 256">
  <rect width="256" height="256" fill="#f7f7f4"/>
  <g fill="none" stroke="#111" stroke-width="2" stroke-linecap="round">
    <circle cx="124" cy="126" r="10"/>
    <line x1="124" y1="32" x2="124" y2="98"/>
    <line x1="124" y1="154" x2="124" y2="220"/>
    <line x1="30" y1="126" x2="96" y2="126"/>
    <line x1="152" y1="126" x2="218" y2="126"/>
    <line x1="58" y1="60" x2="102" y2="104"/>
    <line x1="146" y1="148" x2="190" y2="192"/>
    <line x1="58" y1="192" x2="102" y2="148"/>
    <line x1="146" y1="104" x2="190" y2="60"/>
  </g>
  <g fill="#f7f7f4" stroke="#111" stroke-width="2">
    <circle cx="124" cy="32" r="7"/>
    <circle cx="124" cy="220" r="7"/>
    <circle cx="30" cy="126" r="7"/>
    <circle cx="218" cy="126" r="7"/>
    <circle cx="58" cy="60" r="7"/>
    <circle cx="190" cy="192" r="7"/>
    <circle cx="58" cy="192" r="7"/>
    <circle cx="190" cy="60" r="7"/>
  </g>
  <g fill="#111" font-family="Arial, sans-serif">
    <text x="170" y="136" font-size="24" letter-spacing="1.5">EPOCH</text>
    <text x="168" y="156" font-size="10" letter-spacing="1.4">02.44 / 118.09 / 352.01</text>
    <text x="168" y="172" font-size="10" letter-spacing="1.4">0038 : 9092 : 1174 : 0013</text>
  </g>
  <g fill="#111">
    <circle cx="170" cy="100" r="2.5"/>
    <circle cx="178" cy="100" r="2.5"/>
  </g>
</svg>
