<svg xmlns="http://www.w3.org/2000/svg" viewBox="0 0 256 256">
  <rect width="256" height="256" fill="#f7f7f4"/>
  <g fill="none" stroke="#111" stroke-width="2" stroke-linecap="round" stroke-linejoin="round">
    <rect x="26" y="78" width="204" height="64" rx="24"/>
    <line x1="90" y1="110" x2="166" y2="110"/>
    <line x1="166" y1="110" x2="186" y2="110"/>
    <polyline points="181,105 186,110 181,115"/>
    <line x1="66" y1="52" x2="104" y2="52"/>
    <line x1="112" y1="52" x2="150" y2="52"/>
    <line x1="158" y1="52" x2="196" y2="52"/>
    <circle cx="66" cy="52" r="13"/>
    <circle cx="104" cy="52" r="13"/>
    <circle cx="142" cy="52" r="13"/>
    <circle cx="180" cy="52" r="13"/>
    <line x1="58" y1="52" x2="74" y2="52"/>
    <line x1="100" y1="48" x2="108" y2="56"/>
    <line x1="138" y1="44" x2="146" y2="60"/>
    <line x1="180" y1="44" x2="180" y2="60"/>
    <line x1="36" y1="176" x2="94" y2="176"/>
    <line x1="114" y1="176" x2="202" y2="176"/>
    <circle cx="36" cy="176" r="4"/>
    <circle cx="94" cy="176" r="4"/>
    <circle cx="202" cy="176" r="4"/>
  </g>
  <g fill="#111" font-family="Arial, sans-serif">
    <text x="52" y="117" font-size="28" letter-spacing="1.5">ONLINE</text>
    <text x="50" y="34" font-size="10" letter-spacing="1.4">ACTIVATED / VERIFIED</text>
    <text x="114" y="194" font-size="11" letter-spacing="1.3">PACKET LOSS: 0.3%</text>
  </g>
</svg>
