<svg xmlns="http://www.w3.org/2000/svg" viewBox="0 0 256 256">
  <rect width="256" height="256" fill="#faf9f4"/>
  <path d="M22 18H222l12 12v196l-12 12H22l-12-12V30Z" fill="none" stroke="#111" stroke-width="2.5" stroke-linejoin="round"/>
  <path d="M30 28h88v74H30z" fill="#111"/>
  <path d="M36 34h76v62" fill="none" stroke="#faf9f4" stroke-width="2"/>
  <g fill="#faf9f4" font-family="Arial, sans-serif" font-weight="700">
    <text x="48" y="66" font-size="20" letter-spacing="2">SYS</text>
    <text x="48" y="88" font-size="20" letter-spacing="2">REL</text>
    <text x="40" y="112" font-size="11" letter-spacing="1.2">SYSTEM RELEASED</text>
  </g>
  <g fill="#111" font-family="Arial, sans-serif">
    <text x="136" y="42" font-size="10" letter-spacing="1.4">EXIT GATE: OPEN</text>
    <text x="136" y="58" font-size="10" letter-spacing="1.4">TERMINATION: COMPLETE</text>
    <text x="136" y="78" font-size="10" letter-spacing="1.4">DESTINATION:</text>
    <text x="136" y="94" font-size="10" letter-spacing="1.4">OTHER SIDE</text>
    <text x="30" y="198" font-size="10" letter-spacing="1.2">KARMA STACK: CLEARED</text>
    <text x="30" y="214" font-size="10" letter-spacing="1.2">STATUS: STABLE</text>
    <text x="30" y="230" font-size="10" letter-spacing="1.2">SELF: NULL</text>
  </g>
  <g fill="#111">
    <circle cx="128" cy="146" r="3"/>
    <circle cx="114" cy="148" r="3"/>
    <circle cx="142" cy="148" r="3"/>
    <circle cx="102" cy="154" r="3"/>
    <circle cx="154" cy="154" r="3"/>
    <circle cx="92" cy="164" r="3"/>
    <circle cx="164" cy="164" r="3"/>
    <circle cx="86" cy="176" r="3"/>
    <circle cx="170" cy="176" r="3"/>
    <circle cx="128" cy="184" r="3"/>
    <circle cx="106" cy="182" r="3"/>
    <circle cx="150" cy="182" r="3"/>
    <circle cx="98" cy="170" r="3"/>
    <circle cx="158" cy="170" r="3"/>
    <circle cx="112" cy="164" r="3"/>
    <circle cx="144" cy="164" r="3"/>
    <circle cx="120" cy="174" r="3"/>
    <circle cx="136" cy="174" r="3"/>
  </g>
  <g fill="none" stroke="#111" stroke-width="2" stroke-linecap="round">
    <line x1="204" y1="204" x2="204" y2="226"/>
    <line x1="210" y1="204" x2="210" y2="226"/>
    <line x1="216" y1="204" x2="216" y2="226"/>
    <line x1="222" y1="204" x2="222" y2="226"/>
    <line x1="228" y1="204" x2="228" y2="226"/>
    <line x1="234" y1="204" x2="234" y2="226"/>
  </g>
</svg>
