<svg width="16" height="16" viewBox="0 0 16 16" fill="none" xmlns="http://www.w3.org/2000/svg">
<path d="M7.75 0C12 0 15.5 3.5 15.5 7.75C15.5 12.0312 12 15.5 7.75 15.5C3.46875 15.5 0 12.0312 0 7.75C0 3.5 3.46875 0 7.75 0ZM12.8438 3.59375C12.7188 3.78125 11.625 5.1875 9.15625 6.1875C9.40625 6.6875 9.5625 7.0625 9.75 7.5C11.9375 7.21875 14.125 7.65625 14.3438 7.71875C14.3438 6.15625 13.7812 4.71875 12.8438 3.59375ZM12.125 2.8125C10.5 1.375 8.28125 0.84375 6.1875 1.34375C6.375 1.59375 7.5625 3.21875 8.65625 5.21875C11 4.34375 12 3 12.125 2.8125ZM4.90625 1.78125C3.0625 2.65625 1.6875 4.375 1.25 6.40625C1.5625 6.4375 4.28125 6.4375 7.375 5.625C6.28125 3.65625 5.09375 2.03125 4.90625 1.78125ZM1.125 7.78125C1.125 9.46875 1.75 11.0312 2.8125 12.1875C3.875 10.375 6.0625 8.4375 8.46875 7.75C8.28125 7.375 8.125 7 7.90625 6.625C4.625 7.625 1.40625 7.59375 1.125 7.5625C1.125 7.65625 1.125 7.71875 1.125 7.78125ZM3.65625 13C5.625 14.5312 8.1875 14.7812 10.3125 13.875C10.2188 13.2812 9.84375 11.25 8.90625 8.84375C6.25 9.75 4.375 11.5938 3.65625 13ZM11.4375 13.25C12.9062 12.25 13.9688 10.6562 14.2812 8.8125C14.0312 8.75 12.2188 8.21875 10.1562 8.53125C11 10.9375 11.375 12.875 11.4375 13.25Z" fill="#F8F4F1"/>
</svg>
