<svg width="20" height="20" viewBox="0 0 20 20" fill="none" xmlns="http://www.w3.org/2000/svg">
<path d="M19.4141 0C19.7266 0 20 0.273438 20 0.585938L19.9609 6.95312C19.9609 7.26562 19.7266 7.5 19.4141 7.5H18.125C17.8125 7.5 17.5391 7.26562 17.5391 6.95312L17.6562 4.0625L17.5781 3.98438L6.67969 14.8828C6.60156 14.9609 6.44531 15.0391 6.36719 15.0391C6.25 15.0391 6.09375 14.9609 6.01562 14.8828L5.11719 13.9844C5.03906 13.9062 4.96094 13.75 4.96094 13.6328C4.96094 13.5547 5.03906 13.3984 5.11719 13.3203L16.0156 2.42188L15.9375 2.34375L13.0469 2.46094C12.7344 2.46094 12.5 2.1875 12.5 1.875V0.585938C12.5 0.273438 12.7344 0.0390625 13.0469 0.0390625L19.4141 0ZM16.875 11.25C17.1875 11.25 17.5 11.5625 17.5 11.875V18.125C17.5 19.1797 16.6406 20 15.625 20H1.875C0.820312 20 0 19.1797 0 18.125V4.375C0 3.35938 0.820312 2.5 1.875 2.5H8.125C8.4375 2.5 8.75 2.8125 8.75 3.125V3.75C8.75 4.10156 8.4375 4.375 8.125 4.375H2.10938C1.95312 4.375 1.875 4.49219 1.875 4.60938V17.8906C1.875 18.0469 1.95312 18.125 2.10938 18.125H15.3906C15.5078 18.125 15.625 18.0469 15.625 17.8906V11.875C15.625 11.5625 15.8984 11.25 16.25 11.25H16.875Z" fill="#F8F4F1"/>
</svg>
