<svg width="17" height="15" viewBox="0 0 17 15" fill="none" xmlns="http://www.w3.org/2000/svg">
<path d="M15.8867 12.2773C16.3789 13.1523 15.75 14.2188 14.7383 14.2188H1.64062C0.628906 14.2188 0 13.125 0.492188 12.2773L7.05469 0.875C7.54688 0 8.83203 0.0273438 9.32422 0.875L15.8867 12.2773ZM8.20312 9.89844C7.49219 9.89844 6.94531 10.4727 6.94531 11.1562C6.94531 11.8672 7.49219 12.4141 8.20312 12.4141C8.88672 12.4141 9.46094 11.8672 9.46094 11.1562C9.46094 10.4727 8.88672 9.89844 8.20312 9.89844ZM7 5.38672L7.19141 9.10547C7.21875 9.29688 7.35547 9.40625 7.51953 9.40625H8.85938C9.02344 9.40625 9.16016 9.29688 9.1875 9.10547L9.37891 5.38672C9.40625 5.19531 9.24219 5.03125 9.05078 5.03125H7.32812C7.13672 5.03125 6.97266 5.19531 7 5.38672Z" fill="#001A13"/>
</svg>
