<svg width="14" height="14" viewBox="0 0 14 14" fill="none" xmlns="http://www.w3.org/2000/svg">
<path d="M3.125 13.9688H0.21875V4.625H3.125V13.9688ZM1.65625 3.375C0.75 3.375 0 2.59375 0 1.65625C0 0.75 0.75 0 1.65625 0C2.59375 0 3.34375 0.75 3.34375 1.65625C3.34375 2.59375 2.59375 3.375 1.65625 3.375ZM13.9688 13.9688H11.0938V9.4375C11.0938 8.34375 11.0625 6.96875 9.5625 6.96875C8.0625 6.96875 7.84375 8.125 7.84375 9.34375V13.9688H4.9375V4.625H7.71875V5.90625H7.75C8.15625 5.1875 9.09375 4.40625 10.5 4.40625C13.4375 4.40625 14 6.34375 14 8.84375V13.9688H13.9688Z" fill="#F8F4F1"/>
</svg>
