<svg width="18" height="18" viewBox="0 0 18 18" fill="none" xmlns="http://www.w3.org/2000/svg">
<path d="M17.4375 8.71875C17.4375 13.5352 13.5 17.4375 8.71875 17.4375C3.90234 17.4375 0 13.5352 0 8.71875C0 3.9375 3.90234 0 8.71875 0C13.5 0 17.4375 3.9375 17.4375 8.71875ZM7.69922 13.3594L14.168 6.89062C14.3789 6.67969 14.3789 6.29297 14.168 6.08203L13.3594 5.30859C13.1484 5.0625 12.7969 5.0625 12.5859 5.30859L7.3125 10.582L4.81641 8.12109C4.60547 7.875 4.25391 7.875 4.04297 8.12109L3.23438 8.89453C3.02344 9.10547 3.02344 9.49219 3.23438 9.70312L6.89062 13.3594C7.10156 13.5703 7.48828 13.5703 7.69922 13.3594Z" fill="#00140F"/>
</svg>
