<svg width="307" height="82" viewBox="0 0 307 82" fill="none" xmlns="http://www.w3.org/2000/svg">
<path opacity="0.3" d="M33.9777 28.3246C104.039 0.367381 190.516 -0.967974 245.749 6.43411C270.696 9.7771 292.911 15.5521 298.631 25.8769C303.553 34.7512 294.178 47.6336 270.631 58.123C240.955 71.3443 198.147 75.5802 164.764 77.6328C132.539 79.6143 102.37 79.1286 76.4894 76.3393C51.0335 73.596 27.1472 68.7548 14.6567 60.599C1.3858 51.933 4.21573 37.0954 37.4493 24.6107C70.249 12.2908 113.536 8.61254 147.06 6.95698C185.033 5.08265 220.118 5.77477 251.762 8.6303C255.284 8.94875 259.51 6.39491 255.992 6.08024C221.272 2.95762 182.468 2.43053 140.477 4.87807C108.043 6.76723 67.6215 11.1138 36.0106 22.4544C7.27003 32.765 -3.68825 45.9023 1.07396 55.4187C7.061 67.3955 34.8888 74.0723 63.4913 77.8448C92.0563 81.6142 126.213 82.4026 163.069 80.1492C197.13 78.0654 240.009 73.6103 271.391 60.6966C295.773 50.6622 307.576 38.2492 306.805 28.6809C305.834 16.6122 284.452 9.29753 259.019 5.19026C201.942 -4.02856 106.209 -3.3157 30.503 26.9306C26.838 28.3945 30.2756 29.8025 33.9777 28.3246Z" fill="#F8F4F1"/>
</svg>
